<?xml version="1.0" encoding="UTF-8"?>
<svg id="Layer_1" data-name="Layer 1" xmlns="http://www.w3.org/2000/svg" viewBox="0 0 108.1452 40.76649">
  <defs>
    <style>
      .cls-1 {
        fill: #fff;
      }
    </style>
  </defs>
  <path class="cls-1" d="M8.27011,7.492c-3.38501-.802-3.755-1.328-3.755-2.259v-.049c0-.946.94202-1.58099,2.34399-1.58099,1.24002,0,2.42001.39099,3.71201,1.22899l.01401.009c.32599.19501.651.286,1.02399.286,1.04202,0,1.88901-.836,1.88901-1.86299,0-.798-.45401-1.34601-.884-1.597-1.68799-1.12201-3.55499-1.66701-5.70599-1.66701C3.1741,0,.5661,2.24301.5661,5.45401v.04999c0,3.446,2.23102,4.65901,6.091,5.59201,3.28702.759,3.53201,1.358,3.53201,2.185v.049c0,1.036-1.017,1.70601-2.59201,1.70601-1.65601,0-3.09799-.53201-4.547-1.68201-.32901-.244-.70898-.36301-1.16199-.36301C.84711,12.991.00012,13.828.00012,14.856c0,.608.29199,1.18001.776,1.526,1.98599,1.47701,4.31998,2.258,6.74799,2.258,4.017,0,6.61301-2.20099,6.61301-5.60599v-.04701c0-3.575-2.81799-4.75299-5.867-5.495"/>
  <path class="cls-1" d="M66.77124,28.4435c0,1.49301-1.18201,2.42-3.08401,2.42h-3.96802v-4.86299h3.944c1.15997,0,3.10803.311,3.10803,2.394v.049ZM63.90921,22.3235h-6.15298c-1.11301,0-1.98502.87199-1.98502,1.98599v14.32301c0,1.101.87201,1.963,1.98502,1.963,1.10098,0,1.96298-.862,1.96298-1.963v-4.166h3.129l4.03601,5.15199c.48499.657,1.08997.97701,1.84998.97701,1.05402,0,1.91101-.836,1.91101-1.864,0-.64801-.30597-1.086-.59198-1.444l-2.89703-3.653c2.33704-.94101,3.61304-2.82401,3.61304-5.36301v-.048c0-1.595-.539-2.99199-1.56702-4.04599-1.23798-1.213-3.06897-1.854-5.293-1.854"/>
  <path class="cls-1" d="M12.125,36.8439H3.948v-3.70599h6.94699c1.00101,0,1.81403-.802,1.81403-1.789,0-1.01401-.81302-1.84001-1.81403-1.84001H3.948v-3.55699h8.05499c1,0,1.814-.813,1.814-1.814,0-1-.814-1.81401-1.814-1.81401H1.987c-1.11401,0-1.987.87201-1.987,1.98601v14.174c0,1.114.87299,1.987,1.987,1.987h10.138c1.00101,0,1.815-.814,1.815-1.814s-.814-1.813-1.815-1.813"/>
  <path class="cls-1" d="M38.25232,17.1266c.40799.976,1.17099,1.513,2.147,1.513h.17099c1.00702,0,1.759-.52299,2.173-1.511l6.05301-14.27299c.069-.162.185-.48401.185-.82001,0-1.07401-.86099-1.91499-1.96201-1.91499-.96201,0-1.63901.644-1.879,1.274l-4.616,11.461-4.543-11.35501c-.33701-.877-1.05801-1.37999-1.98001-1.37999-1.11398,0-1.987.851-1.987,1.938,0,.37399.10699.66599.20901.89499l6.02899,14.173Z"/>
  <path class="cls-1" d="M24.2095,5.282l2.32501,5.34801h-4.65002l2.32501-5.34801ZM18.9985,17.274l1.32901-3.041h7.76498l1.27899,2.944c.36603.864,1.04102,1.339,1.90201,1.339,1.05801,0,1.88699-.84001,1.88699-1.91301,0-.28699-.07599-.57799-.21899-.845L26.5495,1.5c-.43698-.967-1.224-1.5-2.21698-1.5h-.14801c-1.00702,0-1.80301.532-2.242,1.50101l-6.392,14.265c-.16602.33099-.24301.61299-.24301.886,0,1.04599.819,1.864,1.86401,1.864.832,0,1.51498-.464,1.827-1.242"/>
  <path class="cls-1" d="M31.29941,22.2009c-1.06799,0-1.936.868-1.936,1.935v9.233l-7.79498-10.086c-.44302-.549-.98401-1.05701-1.93402-1.05701h-.31998c-1.09601,0-1.98801.89-1.98801,1.985v14.44701c0,1.06799.88098,1.937,1.96399,1.937,1.06799,0,1.93799-.869,1.93799-1.937v-9.577l8.03403,10.40199c.41699.537.97299,1.086,1.939,1.086h.12399c1.086,0,1.936-.86099,1.936-1.961v-14.472c0-1.067-.88-1.935-1.96201-1.935"/>
  <path class="cls-1" d="M77.51318,16.57829c0-1-.81403-1.814-1.81403-1.814h-20.54898v-3.705h6.94601c1.00098,0,1.81598-.80301,1.81598-1.79001,0-1.01399-.815-1.83899-1.81598-1.83899h-6.94601v-3.558h8.05402c.99997,0,1.814-.813,1.814-1.813,0-1.00101-.81403-1.815-1.814-1.815h-10.017c-1.11301,0-1.98502.873-1.98502,1.987v14.175c0,1.114.87201,1.987,1.98502,1.987h22.51196c1,0,1.81403-.814,1.81403-1.815"/>
  <path class="cls-1" d="M50.1528,36.8439h-8.17801v-3.70599h6.94501c1.00101,0,1.815-.802,1.815-1.789,0-1.01401-.814-1.84001-1.815-1.84001h-6.94501v-3.55699h8.05402c1,0,1.814-.813,1.814-1.814,0-1-.814-1.81401-1.814-1.81401h-10.017c-1.11401,0-1.98602.87201-1.98602,1.98601v14.174c0,1.114.87201,1.987,1.98602,1.987h10.14099c1,0,1.81299-.814,1.81299-1.814s-.81299-1.813-1.81299-1.813"/>
  <path class="cls-1" d="M106.2052,22.17549c-.72198,0-1.32001.364-1.82703,1.10699l-4.49396,6.399-4.42102-6.369c-.117-.17099-.26398-.36299-.44897-.53799,1.005-1.739,1.58301-3.705,1.66797-5.769.13702-3.356-1.03998-6.565-3.315-9.035-2.276-2.47099-5.37799-3.907-8.73401-4.045-4.76001-.196-9.16498,2.26801-11.49597,6.42799-.50098.895-.18201,2.026.71198,2.526.89502.502,2.026.183,2.52704-.71199,1.64301-2.93401,4.75-4.67,8.10498-4.533,2.36603.097,4.552,1.10899,6.15503,2.851,1.60394,1.741,2.43396,4.002,2.33698,6.368-.09698,2.36501-1.10999,4.55101-2.85101,6.155-1.74097,1.604-4.00201,2.43401-6.36798,2.33701-3.04498-.125-5.77704-1.77499-7.30798-4.41499-.51404-.886-1.65002-1.188-2.53601-.67401-.88702.51401-1.18903,1.65001-.67401,2.53601.63696,1.099,1.422,2.07599,2.32098,2.914-1.20197,1.612-1.87097,3.608-1.87097,5.68999v.05c0,2.58701.91498,4.944,2.578,6.636,1.72498,1.756,4.08197,2.68401,6.81598,2.68401,2.86298,0,5.052-1.05901,6.37097-1.939.85901-.533,1.276-1.289,1.276-2.311v-4.60201c0-1.11501-.87195-1.98799-1.98596-1.98799h-4.79803c-1.00098,0-1.815.80299-1.815,1.78899,0,.97501.81403,1.76801,1.815,1.76801h2.93304v2.52501c-1.01599.689-2.35004,1.08099-3.69702,1.08099-3.17798,0-5.39697-2.341-5.39697-5.69301v-.047c0-1.263.37799-2.46399,1.06195-3.438,1.47003.677,3.08002,1.07401,4.758,1.14301.23102.009.46204.013.69202.009,3.00403-.03799,5.85303-1.13499,8.11902-3.127l5.48102,7.53v5.166c0,1.082.88098,1.963,1.96295,1.963,1.11401,0,1.98602-.862,1.98602-1.963v-5.24001l5.79102-7.92c.34399-.45999.51099-.905.51099-1.36,0-1.104-.83398-1.937-1.94-1.937"/>
  <path class="cls-1" d="M81.16718,17.73111c-.724,0-1.31201-.589-1.31201-1.315s.58801-1.315,1.31201-1.315,1.31201.589,1.31201,1.315-.58801,1.315-1.31201,1.315M81.16718,13.2411c-1.69397,0-3.06702,1.42101-3.06702,3.173,0,1.75299,1.37305,3.17299,3.06702,3.17299s3.06702-1.42,3.06702-3.17299c0-1.752-1.37305-3.173-3.06702-3.173"/>
  <path class="cls-1" d="M90.33893,13.6293c-.16699-.164-.38898-.24699-.65997-.24699-.26501,0-.48401.084-.65002.248-.16302.16199-.245.39-.245.67699v2.26601l-1.87103-2.416-.03198-.04401c-.05701-.07599-.112-.14999-.16602-.22099-.078-.104-.15399-.187-.23199-.255-.08899-.078-.19299-.14-.30896-.185-.11902-.04601-.25702-.06999-.41205-.06999-.20099,0-.39197.049-.565.14499-.18298.10001-.31799.237-.40198.41-.065.14-.09601.315-.09601.535v4.132c0,.28299.086.511.25403.67499.16998.166.39197.25.659.25.25897,0,.47797-.082.651-.24399.17401-.164.26196-.39301.26196-.681v-2.20801l1.815,2.375c.07001.08701.14001.172.21002.255.08301.099.17401.187.27197.26199.11005.08301.23004.145.35803.185.12299.037.25897.056.40497.056.638,0,1.00305-.368,1.00305-1.00899v-4.21301c0-.28799-.08405-.51599-.24902-.67799"/>
</svg>