<?xml version="1.0" encoding="UTF-8"?>
<svg id="Layer_1" data-name="Layer 1" xmlns="http://www.w3.org/2000/svg" xmlns:xlink="http://www.w3.org/1999/xlink" viewBox="0 0 109.8706 23.5291">
  <defs>
    <style>
      .cls-1 {
        fill: none;
      }

      .cls-2 {
        fill: #58595b;
      }

      .cls-3 {
        fill: #ffcd33;
      }

      .cls-4 {
        fill: #1c3664;
      }

      .cls-5 {
        fill: #303c42;
      }

      .cls-6 {
        clip-path: url(#clippath-1);
      }

      .cls-7 {
        fill: #2e953e;
      }

      .cls-8 {
        clip-path: url(#clippath);
      }
    </style>
    <clipPath id="clippath">
      <rect class="cls-1" width="109.8706" height="23.5291"/>
    </clipPath>
    <clipPath id="clippath-1">
      <rect class="cls-1" x=".2496" y=".2501" width="109.371" height="23.029"/>
    </clipPath>
  </defs>
  <g class="cls-8">
    <g class="cls-6">
      <path class="cls-7" d="M67.6873,22.3245h-.69v-2.654h1.098c.298,0,.526.078.68401.233.159.154.238.373.238.654,0,.282-.079.5-.238.655-.158.154-.386.232-.68401.232h-.408v.88ZM67.6873,20.8885h.228c.25401,0,.381-.111.381-.331s-.127-.33-.381-.33h-.228v.661Z"/>
      <path class="cls-7" d="M69.3052,20.9975c0-.197.037-.381.11-.551.072-.169.173-.318.303-.445.128-.126.282-.226.462-.297.179-.072.377-.108.593-.108.213,0,.41.036.591.108.181.071.336.171.466.297.13.127.232.276.305.445.072.17.109.354.109.551s-.037.38-.109.551c-.073.169-.175.318-.305.445-.13.126-.285.226-.466.297-.181.072-.378.108-.591.108-.216,0-.414-.036-.593-.108-.18-.071-.334-.171-.462-.297-.13-.127-.231-.276-.303-.445-.073-.171-.11-.354-.11-.551M70.0272,20.9975c0,.105.02.203.06.292s.094.167.161.232c.069.066.148.117.238.153.09.037.186.055.287.055.101,0,.196-.018.286-.055.091-.036.17101-.087.24001-.153.069-.065.12299-.143.16399-.232.039-.089.05901-.187.05901-.292s-.02-.203-.05901-.292c-.041-.089-.09499-.167-.16399-.232-.069-.066-.149-.117-.24001-.154-.09-.035-.185-.054-.286-.054-.10101,0-.197.019-.287.054-.09.037-.169.088-.238.154-.067.065-.121.143-.161.232s-.06.187-.06.292"/>
      <polygon class="cls-7" points="73.0811 19.671 73.5391 21.385 74.10109 19.671 74.6501 19.671 75.2131 21.385 75.67109 19.671 76.39209 19.671 75.60009 22.324 74.8971 22.324 74.37609 20.786 73.8551 22.324 73.1511 22.324 72.3601 19.671 73.0811 19.671"/>
      <polygon class="cls-7" points="78.2675 20.2552 77.4475 20.2552 77.4475 20.6982 78.2215 20.6982 78.2215 21.2832 77.4475 21.2832 77.4475 21.7402 78.2675 21.7402 78.2675 22.3242 76.7585 22.3242 76.7585 19.6712 78.2675 19.6712 78.2675 20.2552"/>
      <path class="cls-7" d="M80.9518,22.3238h-.858l-.658-1.02v1.02h-.69v-2.653h1.07301c.14799,0,.277.022.388.065.10899.044.201.103.272.178.072.075.125.162.162.261.036.098.055.204.055.316,0,.202-.049.365-.146.491-.098.125-.242.21-.432.255l.834,1.087ZM79.4358,20.8568h.13c.136,0,.24001-.029.313-.085.073-.056.109-.136.109-.242s-.036-.187-.109-.243-.177-.085-.313-.085h-.13v.655Z"/>
      <polygon class="cls-7" points="82.9121 19.671 83.3691 21.385 83.93209 19.671 84.4811 19.671 85.04409 21.385 85.50209 19.671 86.22309 19.671 85.4311 22.324 84.7271 22.324 84.2071 20.786 83.6861 22.324 82.9821 22.324 82.1911 19.671 82.9121 19.671"/>
      <polygon class="cls-7" points="87.2714 20.695 88.2674 20.695 88.2674 19.671 88.95639 19.671 88.95639 22.324 88.2674 22.324 88.2674 21.23 87.2714 21.23 87.2714 22.324 86.58139 22.324 86.58139 19.671 87.2714 19.671 87.2714 20.695"/>
      <path class="cls-7" d="M91.1454,21.8638h-.985l-.159.46h-.735l1.01-2.653h.753l1.01,2.653h-.735l-.159-.46ZM90.9624,21.3388l-.309-.883-.31001.883h.619Z"/>
      <polygon class="cls-7" points="93.0769 20.2552 93.0769 22.3242 92.3869 22.3242 92.3869 20.2552 91.8209 20.2552 91.8209 19.6712 93.6439 19.6712 93.6439 20.2552 93.0769 20.2552"/>
      <polygon class="cls-7" points="94.1748 19.671 94.7758 19.671 94.1288 20.839 93.7208 20.839 94.1748 19.671"/>
      <path class="cls-7" d="M96.4794,20.3502c-.075-.061-.15-.106-.225-.135-.075-.03-.148-.045-.218-.045-.089,0-.162.022-.218.064-.057.042-.085.097-.085.165,0,.047.014.086.042.116.029.031.066.057.111.08.04601.022.098.041.155.057.05701.017.11401.034.17101.053.225.076.39.176.494.301.105.126.15701.289.15701.491,0,.136-.023.259-.07.369-.04501.111-.112.205-.2.284-.088.078-.196.139-.323.183-.128.043-.273.064-.435.064-.33601,0-.646-.099-.932-.299l.295-.555c.103.092.205.159.306.204.101.044.201.067.3.067.112,0,.195-.026.251-.078.055-.051.082-.11.082-.176,0-.039-.006-.074-.02-.103-.015-.03-.038-.057-.071-.082-.033-.024-.075-.047-.129-.068-.052-.021-.116-.044-.191-.07-.089-.029-.177-.06-.262-.094-.086-.033-.162-.079-.229-.135-.06699-.057-.12099-.127-.161-.213-.042-.086-.062-.194-.062-.326,0-.131.021-.25.065-.357.043-.106.104-.198.183-.274.078-.076.175-.135.288-.178.114-.042.241-.063.382-.063.132,0,.269.018.412.055.143.036.28.089.411.16l-.274.538Z"/>
      <polygon class="cls-7" points="98.5273 22.324 98.5273 19.671 99.2173 19.671 100.4913 21.293 100.4913 19.671 101.1773 19.671 101.1773 22.324 100.4913 22.324 99.2173 20.702 99.2173 22.324 98.5273 22.324"/>
      <polygon class="cls-7" points="103.21749 20.2552 102.39749 20.2552 102.39749 20.6982 103.17149 20.6982 103.17149 21.2832 102.39749 21.2832 102.39749 21.7402 103.21749 21.7402 103.21749 22.3242 101.7075 22.3242 101.7075 19.6712 103.21749 19.6712 103.21749 20.2552"/>
      <polygon class="cls-7" points="104.5052 20.9095 103.6782 19.6715 104.53019 19.6715 104.8892 20.3575 105.3322 19.6715 106.18319 19.6715 105.3072 20.9095 106.2962 22.3245 105.4552 22.3245 104.92421 21.4585 104.3012 22.3245 103.46721 22.3245 104.5052 20.9095"/>
      <polygon class="cls-7" points="107.6331 20.2552 107.6331 22.3242 106.9431 22.3242 106.9431 20.2552 106.3771 20.2552 106.3771 19.6712 108.19909 19.6712 108.19909 20.2552 107.6331 20.2552"/>
      <polygon class="cls-5" points="108.15249 11.0511 108.7585 11.0511 108.7585 11.1641 108.52049 11.1641 108.52049 11.7991 108.38949 11.7991 108.38949 11.1641 108.15249 11.1641 108.15249 11.0511"/>
      <polygon class="cls-5" points="108.8432 11.0511 109.0272 11.0511 109.2342 11.6371 109.2362 11.6371 109.43719 11.0511 109.62019 11.0511 109.62019 11.7991 109.49519 11.7991 109.49519 11.2221 109.49319 11.2221 109.2852 11.7991 109.1772 11.7991 108.9702 11.2221 108.96719 11.2221 108.96719 11.7991 108.8432 11.7991 108.8432 11.0511"/>
      <path class="cls-5" d="M69.9983,5.2547c-1.283-.304-1.424-.504-1.424-.856v-.019c0-.358.357-.599.889-.599.47,0,.91701.148,1.40701.466l.005.003c.124.074.247.109.388.109.396,0,.717-.317.717-.707,0-.302-.172-.509-.335-.605-.64-.425-1.348-.632-2.163-.632-1.416,0-2.405.85-2.405,2.067v.02c0,1.305.846,1.765,2.309,2.119,1.247.288,1.34.515,1.34.828v.019c0,.393-.38599.646-.98299.646-.62801,0-1.174-.201-1.724-.637-.124-.092-.26801-.137-.44-.137-.395,0-.716.317-.716.706,0,.23.111.447.294.578.75301.56,1.637.856,2.55801.856,1.52299,0,2.507-.834,2.507-2.124v-.019c0-1.354-1.068-1.801-2.224-2.082"/>
      <path class="cls-5" d="M91.0878,10.8766h-2.332c-.422,0-.753.331-.753.753v5.429c0,.417.331.744.753.744.417,0,.744-.327.744-.744v-1.58h1.186l1.53,1.954c.184.249.413.37.701.37.39899,0,.724-.317.724-.706,0-.246-.116-.412-.224-.548l-1.098-1.385c.88599-.356,1.369-1.07,1.369-2.032v-.019c0-.604-.204-1.134-.593-1.533-.46999-.46-1.16399-.703-2.007-.703M92.1728,13.1966c0,.565-.448.917-1.169.917h-1.504v-1.843h1.495c.44,0,1.178.118,1.178.907v.019Z"/>
      <path class="cls-5" d="M71.4592,16.3805h-3.099v-1.405h2.633c.37901,0,.688-.304.688-.677,0-.385-.309-.699-.688-.699h-2.633v-1.348h3.053c.379,0,.688-.308.688-.687s-.309-.688-.688-.688h-3.797c-.422,0-.753.331-.753.753v5.373c0,.422.331.753.753.753h3.843c.379,0,.688-.309.688-.688s-.30901-.687-.688-.687"/>
      <path class="cls-5" d="M81.3629,8.9067c.155.37.444.574.814.574h.06499c.382,0,.666-.199.82301-.573l2.294-5.41c.026-.062.071-.184.071-.311,0-.408-.327-.726-.744-.726-.365,0-.62099.244-.712.483l-1.75,4.344-1.722-4.304c-.127-.333-.401-.523-.751-.523-.421,0-.752.323-.752.734,0,.142.04.253.07899.34l2.285,5.372Z"/>
      <path class="cls-5" d="M74.0649,8.963l.504-1.153h2.943l.485,1.115c.138.328.394.508.72.508.402,0,.716-.318.716-.725,0-.108-.029-.219-.083-.32l-2.423-5.405c-.165-.366-.464-.568-.84-.568h-.057c-.381,0-.683.202-.849.569l-2.423,5.407c-.063.126-.092.233-.092.336,0,.396.31.706.706.706.316,0,.575-.175.693-.47M76.0399,4.417l.881,2.027h-1.76199l.881-2.027Z"/>
      <path class="cls-5" d="M78.7273,10.8301c-.405,0-.734.329-.734.734v3.499l-2.955-3.823c-.167-.208-.37199-.401-.73199-.401h-.122c-.416,0-.754.338-.754.753v5.476c0,.405.334.734.745.734.405,0,.734-.329.734-.734v-3.63l3.046,3.943c.158.203.369.411.735.411h.047c.41199,0,.734-.326.734-.743v-5.485c0-.405-.334-.734-.744-.734"/>
      <path class="cls-5" d="M96.2445,8.6989c0-.379-.309-.688-.687-.688h-7.789v-1.404h2.632c.38,0,.688-.304.688-.679,0-.384-.308-.696-.688-.696h-2.632v-1.349h3.052c.379,0,.688-.308.688-.688,0-.379-.309-.687-.688-.687h-3.797c-.422,0-.752.331-.752.753v5.373c0,.422.33.753.752.753h8.534c.378,0,.687-.309.687-.688"/>
      <path class="cls-5" d="M85.8736,16.3805h-3.1v-1.405h2.633c.38,0,.688-.304.688-.677,0-.385-.308-.699-.688-.699h-2.633v-1.348h3.053c.379,0,.687-.308.687-.687s-.308-.688-.687-.688h-3.797c-.422,0-.753.331-.753.753v5.373c0,.422.331.753.753.753h3.844c.379,0,.687-.309.687-.688s-.308-.687-.687-.687"/>
      <path class="cls-5" d="M107.1202,10.8205c-.274,0-.50101.138-.69299.42l-1.703,2.425-1.67601-2.414c-.04399-.065-.09999-.138-.17-.204.38101-.659.60001-1.405.63301-2.187.05199-1.272-.395-2.488-1.257-3.425-.86301-.936-2.039-1.48-3.311-1.532-1.805-.075-3.474.859-4.35699,2.436-.19.339-.07001.767.269.957.34.19.768.069.958-.27.623-1.111,1.801-1.77,3.073-1.718.896.037,1.725.421,2.333,1.081.60699.66.922,1.517.88499,2.414-.036.896-.42,1.725-1.07999,2.333s-1.517.922-2.414.885c-1.154-.047-2.18999-.672-2.77-1.673-.195-.336-.625-.45-.961-.256-.33701.196-.451.626-.256.962.242.416.539.786.88,1.104-.455.612-.70901,1.368-.70901,2.157v.019c0,.981.347,1.874.97701,2.515.654.666,1.548,1.018,2.583,1.018,1.086,0,1.915-.402,2.416-.735.325-.202.48299-.489.48299-.876v-1.745c0-.422-.32999-.753-.753-.753h-1.819c-.379,0-.688.304-.688.678,0,.37.309.67.688.67h1.113v.957c-.38599.262-.891.41-1.40199.41-1.205,0-2.04601-.887-2.04601-2.158v-.018c0-.479.144-.934.403-1.303.557.257,1.167.407,1.803.434.08801.003.176.004.263.003,1.138-.015,2.219-.431,3.077-1.186l2.078,2.854v1.959c0,.41.334.744.74399.744.42201,0,.75301-.327.75301-.744v-1.986l2.19501-3.002c.12999-.175.19299-.344.19299-.516,0-.418-.31599-.734-.735-.734"/>
      <path class="cls-7" d="M97.6297,7.4338c-.642,0-1.163.539-1.163,1.203s.521,1.203,1.163,1.203,1.162-.539,1.162-1.203-.52-1.203-1.162-1.203M97.6297,9.1358c-.274,0-.497-.223-.497-.499,0-.275.223-.498.497-.498s.497.223.497.498c0,.276-.223.499-.497.499"/>
      <path class="cls-7" d="M101.1062,7.5811c-.064-.062-.147-.094-.25-.094-.101,0-.184.032-.247.094-.061.062-.092.148-.092.257v.859l-.71001-.916-.01199-.017c-.022-.029-.043-.056-.063-.083-.029-.04-.058-.071-.088-.097-.033-.029-.07301-.053-.117-.07-.045-.018-.097-.027-.156-.027-.077,0-.148.019-.214.055-.069.038-.12.09-.153.156-.024.053-.036.119-.036.202v1.567c0,.107.033.193.096.256.065.062.149.095.25.095.098,0,.182-.032.247-.093.066-.062.099-.149.099-.258v-.837l.688.9c.027.033.053.065.08.097.031.038.066.07.103.099.041.031.087.055.13599.07.04601.014.098.022.153.022.242,0,.38-.14.38-.383v-1.597c0-.109-.031-.196-.094-.257"/>
      <path class="cls-4" d="M20.912,17.3857c-.117.491-.388.828-.931.828-.594,0-1.011-.432-1.011-1.359,0-.861.374-1.36,1.011-1.36.491,0,.777.286.895.77l-.271.08c-.096-.374-.264-.601-.66-.601-.381,0-.682.352-.682,1.111,0,.766.301,1.11.74,1.11.407,0,.565-.308.645-.63l.264.051Z"/>
      <path class="cls-4" d="M21.9715,18.2142c-.52,0-.781-.44-.781-.99s.261-.989.781-.989.781.439.781.989-.261.99-.781.99M21.9715,16.4622c-.315,0-.517.271-.517.762s.202.763.517.763.517-.272.517-.763-.202-.762-.517-.762"/>
      <path class="cls-4" d="M23.5142,16.2718v.256h.007c.151-.168.348-.293.565-.293.282,0,.549.147.549.557v1.386h-.264v-1.378c0-.254-.12-.337-.311-.337-.198,0-.425.161-.546.289v1.426h-.264v-1.906h.264Z"/>
      <path class="cls-4" d="M25.5701,16.2718v.256h.007c.151-.168.348-.293.565-.293.282,0,.549.147.549.557v1.386h-.264v-1.378c0-.254-.12-.337-.311-.337-.198,0-.425.161-.546.289v1.426h-.264v-1.906h.264Z"/>
      <path class="cls-4" d="M28.7615,17.7706c-.124.216-.3.443-.732.443-.425,0-.829-.293-.829-.989,0-.616.308-.989.778-.989.395,0,.725.256.725.864v.176h-1.239c0,.418.25.711.565.711.234,0,.417-.124.527-.322l.205.106ZM28.4395,17.0486c0-.352-.169-.586-.455-.586-.318,0-.49.234-.513.586h.968Z"/>
      <path class="cls-4" d="M30.3012,16.8396c-.074-.231-.223-.377-.45-.377-.327,0-.517.278-.517.762,0,.483.19.762.517.762.241,0,.376-.08.524-.351l.212.095c-.191.322-.36.483-.736.483-.477,0-.781-.374-.781-.989,0-.616.304-.989.781-.989.391,0,.575.22.696.517l-.246.087Z"/>
      <path class="cls-4" d="M31.1515,16.2718v-.627h.264v.627h.44v.227h-.44v1.356c0,.088.063.132.216.132.088,0,.165-.007.235-.018v.216c-.048.014-.154.029-.308.029-.286,0-.407-.073-.407-.315v-1.4h-.312v-.227h.312Z"/>
      <path class="cls-4" d="M32.6726,15.8101h-.264v-.315h.264v.315ZM32.4086,16.2721h.264v1.906h-.264v-1.906Z"/>
      <path class="cls-4" d="M33.6399,16.2718v.256h.008c.15-.168.348-.293.563-.293.283,0,.55.147.55.557v1.386h-.263v-1.378c0-.254-.121-.337-.312-.337-.198,0-.425.161-.546.289v1.426h-.264v-1.906h.264Z"/>
      <path class="cls-4" d="M36.8646,16.4622c-.109,0-.227.018-.293.051.055.066.132.213.132.389,0,.378-.311.667-.697.667-.153,0-.234-.022-.336-.052-.103.03-.151.092-.151.176,0,.088.062.14.158.14.902,0,1.191.161,1.191.535,0,.279-.275.513-.869.513-.535,0-.821-.147-.821-.462,0-.191.118-.282.323-.389-.147-.043-.238-.157-.238-.271,0-.164.11-.234.256-.326-.179-.136-.26-.322-.26-.531,0-.403.315-.667.722-.667.205,0,.348.044.473.132.113-.081.267-.154.41-.169v.264ZM35.9596,18.0972c-.414,0-.531.182-.531.318,0,.143.087.239.616.239.315,0,.571-.089.575-.275-.004-.187-.194-.282-.66-.282M35.9706,16.4622c-.3,0-.462.191-.462.44,0,.253.198.44.491.44.301,0,.455-.198.455-.425,0-.279-.161-.455-.484-.455"/>
      <polygon class="cls-4" points="39.1112 15.7805 39.1112 18.1775 38.8172 18.1775 38.8172 15.7805 38.0262 15.7805 38.0262 15.5315 39.9032 15.5315 39.9032 15.7805 39.1112 15.7805"/>
      <path class="cls-4" d="M40.5625,18.2142c-.52,0-.781-.44-.781-.99s.261-.989.781-.989.78.439.78.989-.26.99-.78.99M40.5625,16.4622c-.315,0-.517.271-.517.762s.202.763.517.763.517-.272.517-.763-.202-.762-.517-.762"/>
      <path class="cls-4" d="M43.2306,15.5312v2.229c0,.138-.007.278.015.417h-.243l-.036-.187c-.088.121-.275.223-.502.223-.337,0-.781-.226-.781-.989,0-.74.444-.989.766-.989.18,0,.356.091.502.212l.015.008v-.924h.264ZM42.9666,16.7262c-.143-.158-.323-.264-.48-.264-.308,0-.53899.202-.53899.777,0,.484.209.748.53899.748.16801,0,.29301-.074.48-.257v-1.004Z"/>
      <path class="cls-4" d="M43.7988,16.6385c.12-.22.355-.404.714-.404.32201,0,.66.155.66.572v.96c0,.209.018.312.044.411h-.272l-.029-.264c-.132.147-.344.301-.63.301-.293,0-.543-.176-.543-.525,0-.417.319-.626,1.166-.776v-.103c0-.253-.165-.348-.392-.348-.293,0-.436.168-.488.296l-.23-.12ZM44.9088,17.1475c-.605.107-.901.282-.901.546,0,.176.168.293.315.293.18999,0,.432-.139.586-.315v-.524Z"/>
      <path class="cls-4" d="M47.027,16.2718l-.67,2.074c-.14.426-.392.535-.642.535-.08801,0-.139-.014-.19-.022v-.216c.036.004.084.011.143.011.161,0,.406-.037.498-.455l-.664-1.927h.279l.513,1.455h.008l.446-1.455h.279Z"/>
      <rect class="cls-4" x="47.18859" y="17.7741" width=".359" height=".403"/>
      <path class="cls-4" d="M19.3026,22.5749v-2.646h.924c.565,0,.81.323.81.741,0,.439-.304.725-.971.725h-.469v1.18h-.294ZM19.5966,21.1459h.499c.487,0,.648-.169.648-.484s-.187-.484-.582-.484h-.565v.968Z"/>
      <path class="cls-4" d="M21.909,22.6121c-.52,0-.78-.44-.78-.99,0-.549.26-.989.78-.989s.781.44.781.989c0,.55-.261.99-.781.99M21.909,20.8601c-.315,0-.517.271-.517.762s.202.763.517.763.517-.272.517-.763-.202-.762-.517-.762"/>
      <polygon class="cls-4" points="22.9316 20.6694 23.1986 20.6694 23.5836 22.1354 23.5916 22.1354 23.9646 20.6694 24.2326 20.6694 24.6136 22.1434 24.6206 22.1434 24.9916 20.6694 25.2586 20.6694 24.7486 22.5754 24.4816 22.5754 24.1006 21.1014 24.0936 21.1014 23.7156 22.5754 23.4486 22.5754 22.9316 20.6694"/>
      <path class="cls-4" d="M27.0987,22.1684c-.125.216-.301.443-.733.443-.425,0-.829-.293-.829-.989,0-.616.308-.99.777-.99.396,0,.726.257.726.865v.176h-1.239c0,.418.25.711.565.711.234,0,.418-.124.528-.322l.205.106ZM26.7757,21.4464c0-.352-.168-.586-.455-.586-.318,0-.49.234-.512.586h.967Z"/>
      <path class="cls-4" d="M27.5528,20.6694h.264v.378h.007c.146-.261.304-.407.619-.407v.264c-.329.007-.501.223-.626.615v1.056h-.264v-1.906Z"/>
      <path class="cls-4" d="M29.1946,20.2081h-.264v-.315h.264v.315ZM28.9306,20.6691h.264v1.906h-.264v-1.906Z"/>
      <path class="cls-4" d="M30.162,20.6694v.256h.007c.151-.168.349-.293.564-.293.283,0,.55.147.55.557v1.386h-.263v-1.378c0-.254-.121-.337-.312-.337-.198,0-.425.161-.546.289v1.426h-.264v-1.906h.264Z"/>
      <path class="cls-4" d="M33.3866,20.8601c-.109,0-.227.018-.293.051.055.066.132.213.132.389,0,.377-.311.667-.697.667-.153,0-.234-.022-.336-.052-.103.03-.15.092-.15.176,0,.088.062.139.157.139.902,0,1.191.162,1.191.536,0,.278-.275.513-.869.513-.535,0-.821-.147-.821-.462,0-.191.117-.283.323-.389-.147-.043-.238-.157-.238-.271,0-.165.11-.235.257-.326-.18-.136-.261-.323-.261-.531,0-.404.315-.667.722-.667.205,0,.348.043.473.132.113-.081.268-.155.41-.169v.264ZM32.4816,22.4941c-.414,0-.531.183-.531.319,0,.143.087.238.616.238.315,0,.571-.088.575-.274-.004-.187-.194-.283-.66-.283M32.4926,20.8601c-.3,0-.462.191-.462.44,0,.253.198.44.491.44.301,0,.455-.198.455-.426,0-.278-.161-.454-.484-.454"/>
      <polygon class="cls-4" points="35.6335 20.1784 35.6335 22.5744 35.3395 22.5744 35.3395 20.1784 34.5485 20.1784 34.5485 19.9284 36.4255 19.9284 36.4255 20.1784 35.6335 20.1784"/>
      <path class="cls-4" d="M37.0847,22.6121c-.52,0-.781-.44-.781-.99,0-.549.261-.989.781-.989s.78.44.78.989c0,.55-.26.99-.78.99M37.0847,20.8601c-.315,0-.517.271-.517.762s.202.763.517.763.517-.272.517-.763-.202-.762-.517-.762"/>
      <path class="cls-4" d="M38.3381,22.5751v-1.906h.264v.253l.015-.015c.161-.179.37-.274.553-.274.245,0,.418.125.487.3.169-.18.382-.3.605-.3.253,0,.52399.106.52399.578v1.364h-.264v-1.364c0-.256-.128-.351-.297-.351-.234,0-.388.154-.531.293v1.422h-.264v-1.364c0-.256-.12801-.351-.297-.351-.234,0-.388.154-.531.293v1.422h-.264Z"/>
      <path class="cls-4" d="M42.043,22.6121c-.52,0-.78-.44-.78-.99,0-.549.26-.989.78-.989s.781.44.781.989c0,.55-.261.99-.781.99M42.043,20.8601c-.315,0-.517.271-.517.762s.202.763.517.763.517-.272.517-.763-.202-.762-.517-.762"/>
      <path class="cls-4" d="M43.2524,20.6694h.264v.378h.007c.146-.261.30399-.407.619-.407v.264c-.329.007-.501.223-.626.615v1.056h-.264v-1.906Z"/>
      <path class="cls-4" d="M44.5094,20.6694h.264v.378h.007c.146-.261.30399-.407.619-.407v.264c-.329.007-.502.223-.626.615v1.056h-.264v-1.906Z"/>
      <path class="cls-4" d="M46.4259,22.6121c-.52,0-.781-.44-.781-.99,0-.549.261-.989.781-.989s.781.44.781.989c0,.55-.261.99-.781.99M46.4259,20.8601c-.315,0-.517.271-.517.762s.202.763.517.763.517-.272.517-.763-.202-.762-.517-.762"/>
      <polygon class="cls-4" points="47.4376 20.6694 47.7056 20.6694 48.0896 22.1354 48.09761 22.1354 48.4706 20.6694 48.73861 20.6694 49.1196 22.1434 49.12661 22.1434 49.4976 20.6694 49.76461 20.6694 49.2546 22.5754 48.98761 22.5754 48.6066 21.1014 48.59861 21.1014 48.22261 22.5754 47.9546 22.5754 47.4376 20.6694"/>
      <rect class="cls-4" x="49.9256" y="22.1721" width=".359" height=".403"/>
      <path class="cls-4" d="M19.8116,4.5961c.406,0,.743.339.743.745s-.337.745-.743.745-.745-.339-.745-.745.339-.745.745-.745M19.3036,7.2601h1.015v5.35h-1.015v-5.35Z"/>
      <path class="cls-4" d="M22.6976,10.3079c0,.936.868,1.557,1.804,1.557.62,0,1.071-.316,1.466-.801l.767.587c-.564.734-1.342,1.095-2.368,1.095-1.692,0-2.752-1.219-2.752-2.811,0-1.603,1.162-2.81,2.763-2.81,1.883,0,2.604,1.444,2.604,2.821v.362h-4.284ZM25.8996,9.4949c-.022-.892-.519-1.558-1.545-1.558-1.003,0-1.657.847-1.657,1.558h3.202Z"/>
      <path class="cls-4" d="M31.0976,8.6031c-.237-.293-.586-.53-1.094-.53-.473,0-.89.214-.89.598,0,.643.913.734,1.364.835.879.214,1.556.553,1.556,1.557,0,1.208-1.105,1.683-2.165,1.683-.879,0-1.534-.226-2.063-.949l.766-.632c.327.328.71.632,1.297.632.519,0,1.083-.214,1.083-.677,0-.609-.846-.722-1.286-.824-.868-.214-1.635-.497-1.635-1.524,0-1.117,1.026-1.648,2.03-1.648.71,0,1.443.249,1.827.881l-.79.598Z"/>
      <path class="cls-4" d="M35.6978,7.1246c1.59,0,2.841,1.253,2.841,2.81,0,1.558-1.251,2.811-2.841,2.811s-2.841-1.253-2.841-2.811c0-1.557,1.251-2.81,2.841-2.81M35.6978,11.7976c1.082,0,1.759-.779,1.759-1.863,0-1.083-.677-1.862-1.759-1.862s-1.759.779-1.759,1.862c0,1.084.677,1.863,1.759,1.863"/>
      <path class="cls-4" d="M16.8979,8.4608c0,3.381-2.741,6.122-6.122,6.122s-6.122-2.741-6.122-6.122,2.741-6.122,6.122-6.122,6.122,2.741,6.122,6.122"/>
      <path class="cls-3" d="M18.356,6.625c-.072-.086-.604.143-.604.143l-.992.401c-.896.364-1.867.759-2.78,1.13-.474-1.179-.938-2.33-.974-2.412-.075-.168.004-.396.182-.476.076-.033,1.046-.503,2.146-1.036l2.484-1.207s.228-.111.203-.148c-.019-.027-.247.067-.247.067l-2.639,1.075s-2.042.832-2.118.865c-.182.081-.387.017-.476-.183-.03-.067-.727-1.51-.727-1.51l-1.467-3.024s-.031-.06-.053-.05c-.028.012,0,.076,0,.076l1.473,3.727s.377.924.39.952c.074.168-.003.396-.183.477-.11.048-2.128,1.025-3.674,1.775-.484-.999-1.625-3.352-1.625-3.352l-.989-2.012s-.117-.237-.196-.205c-.08.031.026.28.026.28l.883,2.202c.469,1.151.957,2.351,1.363,3.347-.712.345-1.226.594-1.226.594-.11.049-.094.085.016.035.032-.014.55-.225,1.257-.514.49,1.204.85,2.083.889,2.171.133.298-.006.703-.325.845-.106.047-1.212.581-2.64,1.271L.608,14.405s-.358.173-.339.231c.02.058.401-.085.401-.085l5.419-2.153c.001,0,2.495-1.017,2.588-1.058.285-.127.715.031.845.324.047.106,1.407,2.915,1.407,2.915,1.042,2.122,2.291,4.663,2.291,4.663,0,0,.061.133.113.106.04-.019-.014-.155-.014-.155,0,0-.972-2.493-1.816-4.656,0,0-1.249-3.066-1.299-3.176-.133-.299.008-.705.325-.845.126-.057,1.651-.794,3.454-1.668.517,1.056.989,2.019,1.01,2.068.05.11.084.093.036-.016-.022-.048-.424-1.047-.864-2.14.871-.422,1.795-.87,2.653-1.286l1.052-.501s.559-.263.486-.348M10.225,9.834c-.323.144-.687.029-.845-.325-.046-.103-.453-.946-1.009-2.094,1.595-.65,3.675-1.495,3.774-1.54.161-.071.403.018.476.184.036.079.579,1.19,1.138,2.33-1.847.752-3.406,1.387-3.534,1.445"/>
      <rect class="cls-2" x="58.3706" y="2.4151" width=".306" height="20.864"/>
    </g>
  </g>
</svg>