<?xml version="1.0" encoding="UTF-8"?>
<svg id="Layer_1" xmlns="http://www.w3.org/2000/svg" version="1.1" viewBox="0 0 258.526 78.346">
  <!-- Generator: Adobe Illustrator 29.4.0, SVG Export Plug-In . SVG Version: 2.1.0 Build 152)  -->
  <defs>
    <style>
      .st0 {
        fill: #2e813e;
      }

      .st1 {
        fill: #58595b;
      }

      .st2 {
        fill: #303c42;
      }
    </style>
  </defs>
  <path class="st2" d="M26.788,26.553c-3.385-.802-3.755-1.328-3.755-2.259v-.049c0-.946.942-1.581,2.344-1.581,1.24,0,2.42.391,3.712,1.229l.014.009c.326.195.651.286,1.024.286,1.042,0,1.889-.836,1.889-1.863,0-.798-.454-1.346-.884-1.597-1.688-1.122-3.555-1.667-5.706-1.667-3.734,0-6.342,2.243-6.342,5.454v.05c0,3.446,2.231,4.659,6.091,5.592,3.287.759,3.532,1.358,3.532,2.185v.049c0,1.036-1.017,1.706-2.592,1.706-1.656,0-3.098-.532-4.547-1.682-.329-.244-.709-.363-1.162-.363-1.041,0-1.888.837-1.888,1.865,0,.608.292,1.18.776,1.526,1.986,1.477,4.32,2.258,6.748,2.258,4.017,0,6.613-2.201,6.613-5.606v-.047c0-3.575-2.818-4.753-5.867-5.495"/>
  <path class="st2" d="M85.289,47.505c0,1.492-1.182,2.419-3.084,2.419h-3.968v-4.863h3.944c1.16,0,3.108.311,3.108,2.394v.05ZM82.427,41.384h-6.153c-1.113,0-1.985.872-1.985,1.986v14.323c0,1.101.872,1.963,1.985,1.963,1.101,0,1.963-.862,1.963-1.963v-4.166h3.129l4.036,5.152c.485.657,1.09.977,1.85.977,1.054,0,1.911-.836,1.911-1.864,0-.648-.306-1.086-.592-1.444l-2.897-3.653c2.337-.941,3.613-2.824,3.613-5.363v-.048c0-1.595-.539-2.992-1.567-4.046-1.238-1.213-3.069-1.854-5.293-1.854"/>
  <path class="st2" d="M30.643,55.905h-8.177v-3.706h6.947c1.001,0,1.814-.802,1.814-1.789,0-1.014-.813-1.84-1.814-1.84h-6.947v-3.557h8.055c1,0,1.814-.813,1.814-1.814s-.814-1.814-1.814-1.814h-10.016c-1.114,0-1.987.872-1.987,1.986v14.174c0,1.114.873,1.987,1.987,1.987h10.138c1.001,0,1.815-.814,1.815-1.814s-.814-1.813-1.815-1.813"/>
  <path class="st2" d="M56.77,36.187c.408.976,1.171,1.513,2.147,1.513h.171c1.007,0,1.759-.523,2.173-1.511l6.053-14.273c.069-.162.185-.484.185-.82,0-1.074-.861-1.915-1.962-1.915-.962,0-1.639.644-1.879,1.274l-4.616,11.461-4.543-11.355c-.337-.877-1.058-1.38-1.98-1.38-1.114,0-1.987.851-1.987,1.938,0,.374.107.666.209.895l6.029,14.173h0Z"/>
  <path class="st2" d="M42.727,24.343l2.325,5.348h-4.65l2.325-5.348h0ZM37.516,36.335l1.329-3.041h7.765l1.279,2.944c.366.864,1.041,1.339,1.902,1.339,1.058,0,1.887-.84,1.887-1.913,0-.287-.076-.578-.219-.845l-6.392-14.258c-.437-.967-1.224-1.5-2.217-1.5h-.148c-1.007,0-1.803.533-2.242,1.501l-6.392,14.265c-.166.331-.243.613-.243.886,0,1.046.819,1.864,1.864,1.864.832,0,1.515-.464,1.827-1.242"/>
  <path class="st2" d="M49.817,41.262c-1.068,0-1.936.868-1.936,1.935v9.233l-7.795-10.086c-.443-.549-.984-1.057-1.934-1.057h-.32c-1.096,0-1.988.89-1.988,1.985v14.447c0,1.068.881,1.937,1.964,1.937,1.068,0,1.938-.869,1.938-1.937v-9.577l8.034,10.402c.417.537.973,1.086,1.939,1.086h.124c1.086,0,1.936-.861,1.936-1.961v-14.472c0-1.067-.88-1.935-1.962-1.935"/>
  <path class="st2" d="M96.031,35.639c0-1-.814-1.814-1.814-1.814h-20.549v-3.706h6.946c1.001,0,1.816-.802,1.816-1.789,0-1.014-.815-1.839-1.816-1.839h-6.946v-3.558h8.054c1,0,1.814-.813,1.814-1.813s-.814-1.815-1.814-1.815h-10.017c-1.113,0-1.985.872-1.985,1.987v14.175c0,1.114.872,1.987,1.985,1.987h22.512c1,0,1.814-.814,1.814-1.815"/>
  <path class="st2" d="M68.671,55.905h-8.178v-3.706h6.945c1.001,0,1.815-.802,1.815-1.789,0-1.014-.814-1.84-1.815-1.84h-6.945v-3.557h8.054c1,0,1.814-.813,1.814-1.814s-.814-1.814-1.814-1.814h-10.017c-1.114,0-1.986.872-1.986,1.986v14.174c0,1.114.872,1.987,1.986,1.987h10.141c1,0,1.813-.814,1.813-1.814s-.813-1.813-1.813-1.813"/>
  <path class="st2" d="M124.723,41.236c-.722,0-1.32.364-1.827,1.107l-4.494,6.399-4.421-6.369c-.117-.171-.264-.363-.449-.538,1.005-1.739,1.583-3.705,1.668-5.769.137-3.356-1.04-6.565-3.315-9.035-2.276-2.471-5.378-3.907-8.734-4.045-4.76-.196-9.165,2.268-11.496,6.428-.501.895-.182,2.025.712,2.527.895.5,2.026.182,2.527-.713,1.643-2.934,4.75-4.67,8.105-4.533,2.366.097,4.552,1.109,6.155,2.851,1.604,1.741,2.434,4.002,2.337,6.368-.097,2.365-1.11,4.551-2.851,6.155-1.741,1.604-4.002,2.435-6.368,2.337-3.045-.125-5.777-1.775-7.308-4.415-.514-.886-1.65-1.188-2.536-.674-.887.514-1.189,1.65-.674,2.537.637,1.098,1.422,2.075,2.321,2.913-1.202,1.612-1.871,3.608-1.871,5.69v.05c0,2.587.915,4.944,2.578,6.636,1.725,1.756,4.082,2.684,6.816,2.684,2.863,0,5.052-1.059,6.371-1.939.859-.533,1.276-1.289,1.276-2.311v-4.602c0-1.115-.872-1.987-1.986-1.987h-4.798c-1.001,0-1.815.802-1.815,1.788,0,.975.814,1.768,1.815,1.768h2.933v2.525c-1.016.689-2.35,1.081-3.697,1.081-3.178,0-5.397-2.341-5.397-5.693v-.047c0-1.263.378-2.464,1.062-3.438,1.47.677,3.08,1.074,4.758,1.143.231.009.462.013.692.01,3.004-.039,5.853-1.136,8.119-3.128l5.481,7.53v5.166c0,1.082.881,1.963,1.963,1.963,1.114,0,1.986-.862,1.986-1.963v-5.24l5.791-7.92c.344-.46.511-.905.511-1.36,0-1.104-.834-1.937-1.94-1.937"/>
  <path class="st0" d="M99.685,36.792c-.724,0-1.312-.589-1.312-1.315s.588-1.315,1.312-1.315,1.312.589,1.312,1.315-.588,1.315-1.312,1.315M99.685,32.302c-1.694,0-3.067,1.421-3.067,3.173s1.373,3.173,3.067,3.173,3.067-1.42,3.067-3.173-1.373-3.173-3.067-3.173"/>
  <path class="st0" d="M108.857,32.69c-.167-.164-.389-.247-.66-.247-.265,0-.484.084-.65.248-.163.162-.245.39-.245.677v2.266l-1.871-2.416-.032-.044c-.057-.076-.112-.15-.166-.221-.078-.104-.154-.187-.232-.256-.089-.077-.193-.139-.309-.185-.119-.046-.257-.069-.412-.069-.201,0-.392.049-.565.145-.183.1-.318.237-.402.41-.065.14-.096.315-.096.535v4.132c0,.283.086.51.254.675.17.166.392.25.659.25.259,0,.478-.082.651-.244.174-.164.262-.393.262-.681v-2.209l1.815,2.376c.07.087.14.172.21.255.083.099.174.187.272.261.11.084.23.146.358.186.123.037.259.056.405.056.638,0,1.003-.368,1.003-1.009v-4.213c0-.288-.084-.516-.249-.678"/>
  <rect class="st1" x="144.6" y="18.518" width=".804" height="41.014"/>
  <path class="st0" d="M165.662,41.114h1.302c.581,0,1.12-.058,1.618-.177.499-.118.93-.313,1.296-.587.364-.274.651-.633.86-1.079.209-.444.314-.989.314-1.632,0-.558-.105-1.043-.314-1.456-.209-.413-.49-.754-.845-1.022-.353-.268-.769-.47-1.247-.603-.477-.135-.978-.202-1.504-.202h-1.48v6.758ZM163.151,32.039h3.766c.911,0,1.778.102,2.598.306.821.204,1.537.534,2.149.989.611.456,1.096,1.049,1.456,1.778.359.73.539,1.616.539,2.656,0,.922-.175,1.735-.524,2.437-.348.703-.817,1.293-1.407,1.771-.591.476-1.271.838-2.044,1.086-.772.246-1.582.37-2.429.37h-4.104v-11.393Z"/>
  <polygon class="st0" points="175.46 32.039 183.2 32.039 183.2 34.356 177.971 34.356 177.971 36.48 182.91 36.48 182.91 38.797 177.971 38.797 177.971 41.114 183.489 41.114 183.489 43.432 175.46 43.432 175.46 32.039"/>
  <polygon class="st0" points="185.597 32.039 188.108 32.039 188.108 41.114 192.757 41.114 192.757 43.432 185.597 43.432 185.597 32.039"/>
  <rect class="st0" x="194.109" y="32.039" width="2.511" height="11.393"/>
  <polygon class="st0" points="197.778 32.039 200.642 32.039 203.458 39.505 203.49 39.505 206.354 32.039 209.042 32.039 204.343 43.432 202.332 43.432 197.778 32.039"/>
  <polygon class="st0" points="210.328 32.039 218.068 32.039 218.068 34.356 212.839 34.356 212.839 36.48 217.778 36.48 217.778 38.797 212.839 38.797 212.839 41.114 218.357 41.114 218.357 43.432 210.328 43.432 210.328 32.039"/>
  <path class="st0" d="M222.879,36.754h1.48c.225,0,.464-.008.716-.025.252-.015.48-.064.684-.144.204-.081.373-.207.506-.378.134-.172.202-.413.202-.725,0-.289-.059-.52-.177-.691-.118-.172-.269-.304-.45-.395-.183-.09-.393-.153-.628-.185-.237-.032-.467-.048-.693-.048h-1.64v2.591ZM220.368,32.039h4.409c.579,0,1.129.057,1.65.169.52.112.975.301,1.367.563.391.263.703.618.933,1.062.231.445.346,1.001.346,1.666,0,.804-.209,1.488-.627,2.051-.419.563-1.03.92-1.835,1.07l2.897,4.812h-3.009l-2.382-4.554h-1.238v4.554h-2.511s0-11.393,0-11.393Z"/>
  <polygon class="st0" points="233 38.572 228.72 32.039 231.842 32.039 234.256 36.303 236.813 32.039 239.791 32.039 235.511 38.572 235.511 43.431 233 43.431 233 38.572"/>
  <path class="st0" d="M165.662,52.957h1.673c.225,0,.442-.021.652-.064.209-.043.396-.116.562-.217.167-.102.301-.241.403-.419.102-.177.153-.399.153-.667,0-.29-.067-.523-.201-.7-.135-.177-.306-.314-.515-.41-.21-.097-.443-.159-.7-.186-.258-.026-.505-.04-.74-.04h-1.287v2.703ZM163.151,48.13h4.232c.59,0,1.148.054,1.673.161.526.108.985.292,1.376.555.392.263.703.617.934,1.062.23.446.346,1.006.346,1.682,0,.665-.108,1.223-.322,1.673-.215.451-.51.81-.885,1.078s-.821.459-1.335.571c-.516.113-1.074.169-1.674.169h-1.834v4.442h-2.511s0-11.393,0-11.393Z"/>
  <path class="st0" d="M176.812,51.444l-1.384,3.54h2.784l-1.4-3.54ZM175.846,48.13h2.076l4.956,11.393h-2.832l-.981-2.414h-4.425l-.949,2.414h-2.768s4.923-11.393,4.923-11.393Z"/>
  <path class="st0" d="M186.532,52.845h1.48c.225,0,.464-.008.716-.025.252-.015.48-.064.684-.144.204-.081.373-.207.506-.378.134-.172.202-.413.202-.725,0-.289-.059-.52-.177-.691-.118-.172-.269-.304-.45-.395-.183-.09-.393-.153-.628-.185-.237-.032-.467-.048-.693-.048h-1.64s0,2.591,0,2.591ZM184.021,48.13h4.409c.579,0,1.129.057,1.65.169.52.112.975.301,1.367.563.391.263.703.618.933,1.062.231.445.346,1.001.346,1.666,0,.804-.209,1.488-.627,2.051-.419.563-1.03.92-1.835,1.07l2.897,4.812h-3.009l-2.382-4.554h-1.238v4.554h-2.511v-11.393Z"/>
  <polygon class="st0" points="196.363 50.351 193.112 50.351 193.112 48.13 202.123 48.13 202.123 50.351 198.873 50.351 198.873 59.523 196.363 59.523 196.363 50.351"/>
  <polygon class="st0" points="203.394 48.13 206.805 48.13 211.649 56.047 211.681 56.047 211.681 48.13 214.191 48.13 214.191 59.523 210.909 59.523 205.937 51.412 205.905 51.412 205.905 59.523 203.394 59.523 203.394 48.13"/>
  <polygon class="st0" points="216.604 48.13 224.344 48.13 224.344 50.447 219.115 50.447 219.115 52.571 224.054 52.571 224.054 54.888 219.115 54.888 219.115 57.205 224.633 57.205 224.633 59.523 216.604 59.523 216.604 48.13"/>
  <path class="st0" d="M229.156,52.845h1.48c.225,0,.464-.008.716-.025.252-.015.48-.064.684-.144.204-.081.373-.207.506-.378.134-.172.202-.413.202-.725,0-.289-.059-.52-.177-.691-.118-.172-.269-.304-.45-.395-.183-.09-.393-.153-.628-.185-.237-.032-.467-.048-.693-.048h-1.64s0,2.591,0,2.591ZM226.645,48.13h4.409c.579,0,1.129.057,1.65.169.52.112.975.301,1.367.563.391.263.703.618.933,1.062.231.445.346,1.001.346,1.666,0,.804-.209,1.488-.627,2.051-.419.563-1.03.92-1.835,1.07l2.897,4.812h-3.009l-2.382-4.554h-1.238v4.554h-2.511v-11.393Z"/>
  <polygon class="st0" points="236.137 48.082 237.736 48.082 237.736 48.381 237.108 48.381 237.108 50.057 236.762 50.057 236.762 48.381 236.137 48.381 236.137 48.082"/>
  <polygon class="st0" points="237.959 48.082 238.446 48.082 238.99 49.628 238.996 49.628 239.527 48.082 240.008 48.082 240.008 50.057 239.679 50.057 239.679 48.533 239.674 48.533 239.126 50.057 238.841 50.057 238.293 48.533 238.288 48.533 238.288 50.057 237.959 50.057 237.959 48.082"/>
</svg>