<?xml version="1.0" encoding="UTF-8"?>
<svg id="Layer_1" data-name="Layer 1" xmlns="http://www.w3.org/2000/svg" viewBox="0 0 245.02399 66.715">
  <defs>
    <style>
      .cls-1 {
        fill: #fff;
      }
    </style>
  </defs>
  <path class="cls-1" d="M18.4343,21.23061c-3.38501-.802-3.755-1.328-3.755-2.259v-.049c0-.946.94202-1.58099,2.34399-1.58099,1.24002,0,2.42001.39099,3.71201,1.22899l.01401.009c.32599.19501.651.286,1.02399.286,1.04202,0,1.88901-.836,1.88901-1.86299,0-.798-.45401-1.34601-.884-1.597-1.68799-1.12201-3.55499-1.66701-5.70599-1.66701-3.73401,0-6.34201,2.24301-6.34201,5.45401v.04999c0,3.446,2.23102,4.65901,6.091,5.59201,3.28702.759,3.53201,1.358,3.53201,2.185v.049c0,1.036-1.017,1.70601-2.59201,1.70601-1.65601,0-3.09799-.53201-4.547-1.68201-.32901-.244-.70898-.36301-1.16199-.36301-1.04102,0-1.888.83701-1.888,1.86501,0,.608.29199,1.18001.776,1.526,1.98599,1.47701,4.31998,2.258,6.74799,2.258,4.017,0,6.61301-2.20099,6.61301-5.60599v-.04701c0-3.575-2.81799-4.75299-5.867-5.495"/>
  <path class="cls-1" d="M76.93542,42.1821c0,1.49301-1.18201,2.42-3.08401,2.42h-3.96802v-4.86299h3.944c1.15997,0,3.10803.311,3.10803,2.394v.049ZM74.07339,36.0621h-6.15298c-1.11301,0-1.98502.87199-1.98502,1.98599v14.32301c0,1.101.87201,1.963,1.98502,1.963,1.10098,0,1.96298-.862,1.96298-1.963v-4.166h3.129l4.03601,5.15199c.48499.657,1.08997.97701,1.84998.97701,1.05402,0,1.91101-.836,1.91101-1.864,0-.64801-.30597-1.086-.59198-1.444l-2.89703-3.653c2.33704-.94101,3.61304-2.82401,3.61304-5.36301v-.048c0-1.595-.539-2.99199-1.56702-4.04599-1.23798-1.213-3.06897-1.854-5.293-1.854"/>
  <path class="cls-1" d="M22.28918,50.5825h-8.177v-3.70599h6.94699c1.00101,0,1.81403-.802,1.81403-1.789,0-1.01401-.81302-1.84001-1.81403-1.84001h-6.94699v-3.55699h8.05499c1,0,1.814-.813,1.814-1.814,0-1-.814-1.81401-1.814-1.81401h-10.01599c-1.11401,0-1.987.87201-1.987,1.98601v14.174c0,1.114.87299,1.987,1.987,1.987h10.138c1.00101,0,1.815-.814,1.815-1.814s-.814-1.813-1.815-1.813"/>
  <path class="cls-1" d="M48.4165,30.8652c.40799.976,1.17099,1.513,2.147,1.513h.17099c1.00702,0,1.759-.52299,2.173-1.511l6.05301-14.27299c.069-.162.185-.48401.185-.82001,0-1.07401-.86099-1.91499-1.96201-1.91499-.96201,0-1.63901.644-1.879,1.274l-4.616,11.461-4.543-11.35501c-.33701-.877-1.05801-1.37999-1.98001-1.37999-1.11398,0-1.987.851-1.987,1.938,0,.37399.10699.66599.20901.89499l6.02899,14.173Z"/>
  <path class="cls-1" d="M34.37369,19.0206l2.32501,5.34801h-4.65002l2.32501-5.34801ZM29.16269,31.0126l1.32901-3.041h7.76498l1.27899,2.944c.36603.864,1.04102,1.339,1.90201,1.339,1.05801,0,1.88699-.84001,1.88699-1.91301,0-.28699-.07599-.57799-.21899-.845l-6.392-14.258c-.43698-.967-1.224-1.5-2.21698-1.5h-.14801c-1.00702,0-1.80301.532-2.242,1.50101l-6.392,14.265c-.16602.33099-.24301.61299-.24301.886,0,1.04599.819,1.864,1.86401,1.864.832,0,1.51498-.464,1.827-1.242"/>
  <path class="cls-1" d="M41.46359,35.9395c-1.06799,0-1.936.868-1.936,1.935v9.233l-7.79498-10.086c-.44302-.549-.98401-1.05701-1.93402-1.05701h-.31998c-1.09601,0-1.98801.89-1.98801,1.985v14.44701c0,1.06799.88098,1.937,1.96399,1.937,1.06799,0,1.93799-.869,1.93799-1.937v-9.577l8.03403,10.40199c.41699.537.97299,1.086,1.939,1.086h.12399c1.086,0,1.936-.86099,1.936-1.961v-14.472c0-1.067-.88-1.935-1.96201-1.935"/>
  <path class="cls-1" d="M87.67737,30.31689c0-1-.81403-1.814-1.81403-1.814h-20.54898v-3.705h6.94601c1.00098,0,1.81598-.80301,1.81598-1.79001,0-1.01399-.815-1.83899-1.81598-1.83899h-6.94601v-3.558h8.05402c.99997,0,1.814-.813,1.814-1.813,0-1.00101-.81403-1.815-1.814-1.815h-10.017c-1.11301,0-1.98502.873-1.98502,1.987v14.175c0,1.114.87201,1.987,1.98502,1.987h22.51196c1,0,1.81403-.814,1.81403-1.815"/>
  <path class="cls-1" d="M60.31699,50.5825h-8.17801v-3.70599h6.94501c1.00101,0,1.815-.802,1.815-1.789,0-1.01401-.814-1.84001-1.815-1.84001h-6.94501v-3.55699h8.05402c1,0,1.814-.813,1.814-1.814,0-1-.814-1.81401-1.814-1.81401h-10.017c-1.11401,0-1.98602.87201-1.98602,1.98601v14.174c0,1.114.87201,1.987,1.98602,1.987h10.14099c1,0,1.81299-.814,1.81299-1.814s-.81299-1.813-1.81299-1.813"/>
  <path class="cls-1" d="M116.36938,35.91409c-.72198,0-1.32001.364-1.82703,1.10699l-4.49396,6.399-4.42102-6.369c-.117-.17099-.26398-.36299-.44897-.53799,1.005-1.739,1.58301-3.705,1.66797-5.769.13702-3.356-1.03998-6.565-3.315-9.035-2.276-2.47099-5.37799-3.907-8.73401-4.045-4.76001-.196-9.16498,2.26801-11.49597,6.42799-.50098.895-.18201,2.026.71198,2.526.89502.502,2.026.183,2.52704-.71199,1.64301-2.93401,4.75-4.67,8.10498-4.533,2.36603.097,4.552,1.10899,6.15503,2.851,1.60394,1.741,2.43396,4.002,2.33698,6.368-.09698,2.36501-1.10999,4.55101-2.85101,6.155-1.74097,1.604-4.00201,2.43401-6.36798,2.33701-3.04498-.125-5.77704-1.77499-7.30798-4.41499-.51404-.886-1.65002-1.188-2.53601-.67401-.88702.51401-1.18903,1.65001-.67401,2.53601.63696,1.099,1.422,2.07599,2.32098,2.914-1.20197,1.612-1.87097,3.608-1.87097,5.68999v.05c0,2.58701.91498,4.944,2.578,6.636,1.72498,1.756,4.08197,2.68401,6.81598,2.68401,2.86298,0,5.052-1.05901,6.37097-1.939.85901-.533,1.276-1.289,1.276-2.311v-4.60201c0-1.11501-.87195-1.98799-1.98596-1.98799h-4.79803c-1.00098,0-1.815.80299-1.815,1.78899,0,.97501.81403,1.76801,1.815,1.76801h2.93304v2.52501c-1.01599.689-2.35004,1.08099-3.69702,1.08099-3.17798,0-5.39697-2.341-5.39697-5.69301v-.047c0-1.263.37799-2.46399,1.06195-3.438,1.47003.677,3.08002,1.07401,4.758,1.14301.23102.009.46204.013.69202.009,3.00403-.03799,5.85303-1.13499,8.11902-3.127l5.48102,7.53v5.166c0,1.082.88098,1.963,1.96295,1.963,1.11401,0,1.98602-.862,1.98602-1.963v-5.24001l5.79102-7.92c.34399-.45999.51099-.905.51099-1.36,0-1.104-.83398-1.937-1.94-1.937"/>
  <path class="cls-1" d="M91.33136,31.46971c-.724,0-1.31201-.589-1.31201-1.315s.58801-1.315,1.31201-1.315,1.31201.589,1.31201,1.315-.58801,1.315-1.31201,1.315M91.33136,26.97971c-1.69397,0-3.06702,1.42101-3.06702,3.173,0,1.75299,1.37305,3.17299,3.06702,3.17299s3.06702-1.42,3.06702-3.17299c0-1.752-1.37305-3.173-3.06702-3.173"/>
  <path class="cls-1" d="M100.50311,27.3679c-.16699-.164-.38898-.24699-.65997-.24699-.26501,0-.48401.084-.65002.248-.16302.16199-.245.39-.245.67699v2.26601l-1.87103-2.416-.03198-.04401c-.05701-.07599-.112-.14999-.16602-.22099-.078-.104-.15399-.187-.23199-.255-.08899-.078-.19299-.14-.30896-.185-.11902-.04601-.25702-.06999-.41205-.06999-.20099,0-.39197.049-.565.14499-.18298.10001-.31799.237-.40198.41-.065.14-.09601.315-.09601.535v4.132c0,.28299.086.511.25403.67499.16998.166.39197.25.659.25.25897,0,.47797-.082.651-.24399.17401-.164.26196-.39301.26196-.681v-2.20801l1.815,2.375c.07001.08701.14001.172.21002.255.08301.099.17401.187.27197.26199.11005.08301.23004.145.35803.185.12299.037.25897.056.40497.056.638,0,1.00305-.368,1.00305-1.00899v-4.21301c0-.28799-.08405-.51599-.24902-.67799"/>
  <rect class="cls-1" x="136.24597" y="13.19699" width=".80402" height="41.013"/>
  <path class="cls-1" d="M157.30811,35.79199h1.302c.58099,0,1.12-.058,1.61804-.177.49896-.118.92999-.31299,1.29596-.58699.36401-.274.651-.63301.85999-1.07901.20905-.444.31403-.989.31403-1.63199,0-.558-.10498-1.043-.31403-1.45601-.20898-.414-.48999-.754-.84497-1.022-.35303-.26799-.76898-.47-1.24701-.603-.47699-.13499-.97797-.202-1.50397-.202h-1.48004v6.758ZM154.79712,26.717h3.76599c.91101,0,1.77802.103,2.59802.306.82098.20399,1.53699.534,2.14899.989.61102.45601,1.09601,1.049,1.45599,1.778.35901.73.539,1.61501.539,2.65601,0,.922-.17499,1.735-.52399,2.437-.34802.703-.81702,1.293-1.40698,1.771-.591.476-1.271.838-2.04401,1.08501-.77203.248-1.58203.371-2.42902.371h-4.104v-11.39301Z"/>
  <polygon class="cls-1" points="167.10669 26.717 174.84668 26.717 174.84668 29.034 169.61768 29.034 169.61768 31.15799 174.5567 31.15799 174.5567 33.47499 169.61768 33.47499 169.61768 35.79199 175.13568 35.79199 175.13568 38.11 167.10669 38.11 167.10669 26.717"/>
  <polygon class="cls-1" points="177.24341 26.717 179.75439 26.717 179.75439 35.79199 184.40338 35.79199 184.40338 38.11 177.24341 38.11 177.24341 26.717"/>
  <rect class="cls-1" x="185.755" y="26.717" width="2.51099" height="11.39301"/>
  <polygon class="cls-1" points="189.42407 26.717 192.28809 26.717 195.10406 34.183 195.13605 34.183 198.00006 26.717 200.68805 26.717 195.98907 38.11 193.97809 38.11 189.42407 26.717"/>
  <polygon class="cls-1" points="201.97491 26.717 209.7149 26.717 209.7149 29.034 204.4859 29.034 204.4859 31.15799 209.42493 31.15799 209.42493 33.47499 204.4859 33.47499 204.4859 35.79199 210.00391 35.79199 210.00391 38.11 201.97491 38.11 201.97491 26.717"/>
  <path class="cls-1" d="M214.52588,31.43199h1.48004c.22498,0,.46399-.008.71594-.02499.25201-.015.48004-.064.68402-.144.20398-.08101.37299-.207.50598-.37801.13403-.172.20203-.41299.20203-.72501,0-.28899-.05902-.51999-.177-.69099-.11798-.172-.26898-.304-.45001-.395-.18298-.09-.39301-.153-.62799-.185-.237-.032-.46698-.048-.69299-.048h-1.64001v2.591ZM212.01489,26.717h4.409c.57898,0,1.12903.05701,1.65002.16901.51996.112.97498.30099,1.367.56299.39099.263.703.61801.93298,1.06201.23102.44499.34601,1.00099.34601,1.666,0,.80399-.20905,1.48799-.62701,2.05099-.41901.563-1.03003.92-1.83502,1.06999l2.89703,4.81201h-3.00903l-2.38196-4.554h-1.23804v4.554h-2.51099v-11.39301Z"/>
  <polygon class="cls-1" points="224.64667 33.2502 220.36664 26.71719 223.48865 26.71719 225.90265 30.98019 228.45966 26.71719 231.43768 26.71719 227.15765 33.2502 227.15765 38.10919 224.64667 38.10919 224.64667 33.2502"/>
  <path class="cls-1" d="M157.30811,47.63489h1.67303c.22498,0,.44196-.021.65198-.064.20898-.043.396-.116.56201-.217.16699-.10201.30096-.24101.40302-.41901.10199-.177.15295-.399.15295-.66699,0-.29001-.06696-.52301-.20099-.70001-.13501-.177-.30597-.314-.51501-.40999-.20996-.097-.44299-.15901-.69995-.186-.258-.026-.505-.04001-.74005-.04001h-1.28699v2.703ZM154.79712,42.80789h4.23199c.59003,0,1.14801.054,1.67303.161.526.10701.98499.29201,1.37598.55501.39197.263.703.61699.93402,1.062.22998.446.34595,1.006.34595,1.68201,0,.66499-.10797,1.22299-.32196,1.67299-.21503.451-.51001.81-.88501,1.078s-.82098.459-1.33502.571c-.51599.11301-1.07397.16901-1.67401.16901h-1.83398v4.442h-2.51099v-11.39301Z"/>
  <path class="cls-1" d="M168.45837,46.12189l-1.38403,3.54001h2.78406l-1.40002-3.54001ZM167.49237,42.80789h2.07599l4.95599,11.39301h-2.83197l-.98102-2.414h-4.42499l-.94904,2.414h-2.76794l4.92297-11.39301Z"/>
  <path class="cls-1" d="M178.17816,47.52289h1.48004c.22498,0,.46399-.008.71594-.02499.25201-.015.48004-.064.68402-.144.20398-.08101.37299-.207.50598-.37801.13403-.172.20203-.41299.20203-.72501,0-.28899-.05902-.51999-.177-.69099-.11798-.172-.26898-.304-.45001-.395-.18298-.09-.39301-.153-.62799-.185-.237-.032-.46698-.048-.69299-.048h-1.64001v2.591ZM175.66718,42.80789h4.409c.57898,0,1.12903.05701,1.65002.16901.51996.112.97498.30099,1.367.56299.39099.263.703.61801.93298,1.06201.23102.44499.34601,1.00099.34601,1.666,0,.804-.20905,1.48799-.62701,2.05099-.41901.563-1.03003.92-1.83502,1.06999l2.89703,4.81201h-3.00903l-2.38196-4.554h-1.23804v4.554h-2.51099v-11.39301Z"/>
  <polygon class="cls-1" points="188.00897 45.02859 184.758 45.02859 184.758 42.8076 193.76898 42.8076 193.76898 45.02859 190.51898 45.02859 190.51898 54.20059 188.00897 54.20059 188.00897 45.02859"/>
  <polygon class="cls-1" points="195.04028 42.80789 198.45129 42.80789 203.29529 50.72488 203.32727 50.72488 203.32727 42.80789 205.83728 42.80789 205.83728 54.2009 202.5553 54.2009 197.58331 46.08989 197.55127 46.08989 197.55127 54.2009 195.04028 54.2009 195.04028 42.80789"/>
  <polygon class="cls-1" points="208.25031 42.80789 215.9903 42.80789 215.9903 45.12489 210.76129 45.12489 210.76129 47.24889 215.70032 47.24889 215.70032 49.56589 210.76129 49.56589 210.76129 51.88289 216.2793 51.88289 216.2793 54.2009 208.25031 54.2009 208.25031 42.80789"/>
  <path class="cls-1" d="M220.80225,47.52289h1.48004c.22498,0,.46399-.008.71594-.02499.25201-.015.48004-.064.68402-.144.20398-.08101.37299-.207.50598-.37801.13403-.172.20203-.41299.20203-.72501,0-.28899-.05902-.51999-.177-.69099-.11798-.172-.26898-.304-.45001-.395-.18298-.09-.39301-.153-.62799-.185-.237-.032-.46698-.048-.69299-.048h-1.64001v2.591ZM218.29126,42.80789h4.409c.57898,0,1.12903.05701,1.65002.16901.51996.112.97498.30099,1.367.56299.39099.263.703.61801.93298,1.06201.23102.44499.34601,1.00099.34601,1.666,0,.804-.20905,1.48799-.62701,2.05099-.41901.563-1.03003.92-1.83502,1.06999l2.89703,4.81201h-3.00903l-2.38196-4.554h-1.23804v4.554h-2.51099v-11.39301Z"/>
  <polygon class="cls-1" points="227.7832 42.75951 229.3822 42.75951 229.3822 43.0585 228.75421 43.0585 228.75421 44.73451 228.4082 44.73451 228.4082 43.0585 227.7832 43.0585 227.7832 42.75951"/>
  <polygon class="cls-1" points="229.60547 42.75951 230.09247 42.75951 230.63647 44.30551 230.64246 44.30551 231.17346 42.75951 231.65448 42.75951 231.65448 44.73451 231.32544 44.73451 231.32544 43.21051 231.3205 43.21051 230.77246 44.73451 230.48749 44.73451 229.93945 43.21051 229.93445 43.21051 229.93445 44.73451 229.60547 44.73451 229.60547 42.75951"/>
</svg>