<?xml version="1.0" encoding="UTF-8"?>
<svg id="Layer_1" data-name="Layer 1" xmlns="http://www.w3.org/2000/svg" viewBox="0 0 245.02399 66.716">
  <defs>
    <style>
      .cls-1 {
        fill: #2e953e;
      }

      .cls-2 {
        fill: #fff;
      }
    </style>
  </defs>
  <rect class="cls-1" width="245.02399" height="66.716"/>
  <path class="cls-2" d="M18.4343,22.21292c-3.38501-.802-3.755-1.328-3.755-2.258v-.05002c0-.94598.94202-1.58099,2.34399-1.58099,1.24002,0,2.42001.39102,3.71201,1.229l.01401.009c.32599.19501.651.28601,1.02399.28601,1.04202,0,1.88901-.836,1.88901-1.86301,0-.798-.45401-1.34601-.884-1.59702-1.68799-1.12198-3.55499-1.66699-5.70599-1.66699-3.73401,0-6.34201,2.24301-6.34201,5.45401v.04999c0,3.44601,2.23102,4.659,6.091,5.59201,3.28702.759,3.53201,1.358,3.53201,2.185v.04901c0,1.03598-1.017,1.70599-2.59201,1.70599-1.65601,0-3.09799-.53201-4.547-1.68201-.32901-.24399-.70898-.36301-1.16199-.36301-1.04102,0-1.888.83701-1.888,1.86502,0,.60797.29199,1.17999.776,1.526,1.98599,1.47699,4.31998,2.258,6.74799,2.258,4.017,0,6.61301-2.20102,6.61301-5.60602v-.047c0-3.57498-2.81799-4.75299-5.867-5.495"/>
  <path class="cls-2" d="M76.93542,43.16461c0,1.49301-1.18201,2.42001-3.08401,2.42001h-3.96802v-4.86301h3.944c1.15997,0,3.10803.311,3.10803,2.39401v.04898ZM74.07339,37.04462h-6.15298c-1.11301,0-1.98502.87201-1.98502,1.98599v14.323c0,1.10101.87201,1.96301,1.98502,1.96301,1.10098,0,1.96298-.862,1.96298-1.96301v-4.16599h3.129l4.03601,5.15201c.48499.65698,1.08997.97699,1.84998.97699,1.05402,0,1.91101-.836,1.91101-1.86401,0-.64899-.30597-1.086-.59198-1.444l-2.89703-3.65399c2.33704-.94,3.61304-2.823,3.61304-5.362v-.048c0-1.595-.539-2.992-1.56702-4.04599-1.23798-1.21301-3.06897-1.854-5.293-1.854"/>
  <path class="cls-2" d="M22.28918,51.56491h-8.177v-3.70599h6.94699c1.00101,0,1.81403-.802,1.81403-1.789,0-1.01401-.81302-1.84-1.81403-1.84h-6.94699v-3.55701h8.05499c1,0,1.814-.81299,1.814-1.814,0-1-.814-1.814-1.814-1.814h-10.01599c-1.11401,0-1.987.87198-1.987,1.98599v14.17401c0,1.11398.87299,1.987,1.987,1.987h10.138c1.00101,0,1.815-.81403,1.815-1.81403s-.814-1.81299-1.815-1.81299"/>
  <path class="cls-2" d="M48.4165,31.8475c.40799.97601,1.17099,1.513,2.147,1.513h.17099c1.00702,0,1.759-.52301,2.173-1.51099l6.05301-14.27301c.069-.16202.185-.48401.185-.82001,0-1.07401-.86099-1.91501-1.96201-1.91501-.96201,0-1.63901.64401-1.879,1.27502l-4.616,11.45999-4.543-11.35501c-.33701-.87698-1.05801-1.38-1.98001-1.38-1.11398,0-1.987.85101-1.987,1.93802,0,.375.10699.66599.20901.89499l6.02899,14.173Z"/>
  <path class="cls-2" d="M34.37369,20.00302l2.32501,5.34799h-4.65002l2.32501-5.34799ZM29.16269,31.99503l1.32901-3.04099h7.76498l1.27899,2.944c.36603.86398,1.04102,1.33899,1.90201,1.33899,1.05801,0,1.88699-.84,1.88699-1.91299,0-.28702-.07599-.578-.21899-.845l-6.392-14.258c-.43698-.96701-1.224-1.5-2.21698-1.5h-.14801c-1.00702,0-1.80301.53198-2.242,1.50098l-6.392,14.26501c-.16602.33099-.24301.61301-.24301.88599,0,1.04602.819,1.86401,1.86401,1.86401.832,0,1.51498-.46399,1.827-1.242"/>
  <path class="cls-2" d="M41.46359,36.92191c-1.06799,0-1.936.86801-1.936,1.935v9.233l-7.79498-10.086c-.44302-.54901-.98401-1.05701-1.93402-1.05701h-.31998c-1.09601,0-1.98801.89001-1.98801,1.98502v14.44699c0,1.06799.88098,1.93701,1.96399,1.93701,1.06799,0,1.93799-.86902,1.93799-1.93701v-9.577l8.03403,10.40201c.41699.53699.97299,1.086,1.939,1.086h.12399c1.086,0,1.936-.86102,1.936-1.961v-14.47202c0-1.06699-.88-1.935-1.96201-1.935"/>
  <path class="cls-2" d="M87.67737,31.29922c0-1-.81403-1.814-1.81403-1.814h-20.54898v-3.70502h6.94601c1.00098,0,1.81598-.80298,1.81598-1.78998,0-1.01401-.815-1.83902-1.81598-1.83902h-6.94601v-3.55798h8.05402c.99997,0,1.814-.81302,1.814-1.81302,0-1.00098-.81403-1.81497-1.814-1.81497h-10.017c-1.11301,0-1.98502.87299-1.98502,1.987v14.17499c0,1.11398.87201,1.987,1.98502,1.987h22.51196c1,0,1.81403-.814,1.81403-1.815"/>
  <path class="cls-2" d="M60.31699,51.56491h-8.17801v-3.70599h6.94501c1.00101,0,1.815-.802,1.815-1.789,0-1.01401-.814-1.84-1.815-1.84h-6.94501v-3.55701h8.05402c1,0,1.814-.81299,1.814-1.814,0-1-.814-1.814-1.814-1.814h-10.017c-1.11401,0-1.98602.87198-1.98602,1.98599v14.17401c0,1.11398.87201,1.987,1.98602,1.987h10.14099c1,0,1.81299-.81403,1.81299-1.81403s-.81299-1.81299-1.81299-1.81299"/>
  <path class="cls-2" d="M116.36938,36.89651c-.72198,0-1.32001.36401-1.82703,1.10699l-4.49396,6.39902-4.42102-6.36902c-.117-.17099-.26398-.36301-.44897-.53799,1.005-1.73901,1.58301-3.70499,1.66797-5.76901.13702-3.35599-1.03998-6.56497-3.315-9.03497-2.276-2.47101-5.37799-3.90701-8.73401-4.04501-4.76001-.19598-9.16498,2.26801-11.49597,6.42801-.50098.89499-.18201,2.026.71198,2.52698.89502.50101,2.026.18201,2.52704-.71298,1.64301-2.93399,4.75-4.67001,8.10498-4.53302,2.36603.09702,4.552,1.11002,6.15503,2.85101,1.60394,1.741,2.43396,4.00201,2.33698,6.36801-.09698,2.36499-1.10999,4.55099-2.85101,6.155-1.74097,1.604-4.00201,2.435-6.36798,2.33701-3.04498-.125-5.77704-1.776-7.30798-4.41501-.51404-.88699-1.65002-1.18802-2.53601-.67401-.88702.51401-1.18903,1.64999-.67401,2.53601.63696,1.099,1.422,2.07599,2.32098,2.914-1.20197,1.612-1.87097,3.608-1.87097,5.69v.04999c0,2.58701.91498,4.944,2.578,6.63602,1.72498,1.75598,4.08197,2.68399,6.81598,2.68399,2.86298,0,5.052-1.05899,6.37097-1.939.85901-.53302,1.276-1.289,1.276-2.311v-4.60199c0-1.11502-.87195-1.987-1.98596-1.987h-4.79803c-1.00098,0-1.815.80197-1.815,1.78799,0,.97501.81403,1.76801,1.815,1.76801h2.93304v2.52499c-1.01599.689-2.35004,1.08099-3.69702,1.08099-3.17798,0-5.39697-2.341-5.39697-5.69299v-.047c0-1.263.37799-2.46402,1.06195-3.43802,1.47003.677,3.08002,1.07401,4.758,1.14301.23102.009.46204.013.69202.009,3.00403-.03799,5.85303-1.13501,8.11902-3.12701l5.48102,7.53003v5.16599c0,1.082.88098,1.96301,1.96295,1.96301,1.11401,0,1.98602-.862,1.98602-1.96301v-5.23999l5.79102-7.92001c.34399-.45999.51099-.905.51099-1.35999,0-1.104-.83398-1.93701-1.94-1.93701"/>
  <path class="cls-2" d="M91.33136,32.45212c-.724,0-1.31201-.58899-1.31201-1.315s.58801-1.315,1.31201-1.315,1.31201.58902,1.31201,1.315-.58801,1.315-1.31201,1.315M91.33136,27.96213c-1.69397,0-3.06702,1.42099-3.06702,3.173,0,1.75299,1.37305,3.173,3.06702,3.173s3.06702-1.42001,3.06702-3.173c0-1.75201-1.37305-3.173-3.06702-3.173"/>
  <path class="cls-2" d="M100.50311,28.35031c-.16699-.164-.38898-.24701-.65997-.24701-.26501,0-.48401.08401-.65002.24802-.16302.16199-.245.38998-.245.677v2.26599l-1.87103-2.41599-.03198-.04401c-.05701-.07602-.112-.14999-.16602-.22101-.078-.104-.15399-.18701-.23199-.255-.08899-.078-.19299-.13998-.30896-.185-.11902-.04599-.25702-.07001-.41205-.07001-.20099,0-.39197.04901-.565.14502-.18298.10098-.31799.237-.40198.41-.065.13998-.09601.31497-.09601.53497v4.13202c0,.28299.086.50998.25403.67499.16998.16602.39197.25.659.25.25897,0,.47797-.082.651-.24399.17401-.164.26196-.39301.26196-.681v-2.20901l1.815,2.37601c.07001.08701.14001.172.21002.255.08301.099.17401.18701.27197.26199.11005.08301.23004.14499.35803.185.12299.03702.25897.056.40497.056.638,0,1.00305-.36798,1.00305-1.009v-4.21298c0-.28799-.08405-.51602-.24902-.67801"/>
  <rect class="cls-2" x="136.24597" y="14.17801" width=".80402" height="41.01401"/>
  <path class="cls-2" d="M157.30811,36.77441h1.302c.58099,0,1.12-.05801,1.61804-.177.49896-.11801.92999-.31302,1.29596-.58701.36401-.27402.651-.633.85999-1.07901.20905-.444.31403-.98898.31403-1.63199,0-.55801-.10498-1.043-.31403-1.45599-.20898-.414-.48999-.754-.84497-1.022-.35303-.26801-.76898-.47-1.24701-.603-.47699-.13501-.97797-.20203-1.50397-.20203h-1.48004v6.75803ZM154.79712,27.6994h3.76599c.91101,0,1.77802.103,2.59802.306.82098.20401,1.53699.534,2.14899.98901.61102.45599,1.09601,1.04898,1.45599,1.77798.35901.73001.539,1.61499.539,2.65601,0,.922-.17499,1.73499-.52399,2.43698-.34802.703-.81702,1.29303-1.40698,1.77103-.591.47598-1.271.83798-2.04401,1.08499-.77203.24799-1.58203.371-2.42902.371h-4.104v-11.39301Z"/>
  <polygon class="cls-2" points="167.10669 27.6994 174.84668 27.6994 174.84668 30.01639 169.61768 30.01639 169.61768 32.14041 174.5567 32.14041 174.5567 34.4574 169.61768 34.4574 169.61768 36.77441 175.13568 36.77441 175.13568 39.09241 167.10669 39.09241 167.10669 27.6994"/>
  <polygon class="cls-2" points="177.24341 27.6994 179.75439 27.6994 179.75439 36.77441 184.40338 36.77441 184.40338 39.09241 177.24341 39.09241 177.24341 27.6994"/>
  <rect class="cls-2" x="185.755" y="27.69901" width="2.51099" height="11.39301"/>
  <polygon class="cls-2" points="189.42407 27.6994 192.28809 27.6994 195.10406 35.16541 195.13605 35.16541 198.00006 27.6994 200.68805 27.6994 195.98907 39.09241 193.97809 39.09241 189.42407 27.6994"/>
  <polygon class="cls-2" points="201.97491 27.6994 209.7149 27.6994 209.7149 30.01639 204.4859 30.01639 204.4859 32.14041 209.42493 32.14041 209.42493 34.4574 204.4859 34.4574 204.4859 36.77441 210.00391 36.77441 210.00391 39.09241 201.97491 39.09241 201.97491 27.6994"/>
  <path class="cls-2" d="M214.52588,32.4144h1.48004c.22498,0,.46399-.008.71594-.02499.25201-.01501.48004-.064.68402-.14401.20398-.08099.37299-.207.50598-.37799.13403-.172.20203-.41299.20203-.72501,0-.289-.05902-.51999-.177-.69098-.11798-.17203-.26898-.30402-.45001-.39502-.18298-.09-.39301-.15298-.62799-.185-.237-.03198-.46698-.048-.69299-.048h-1.64001v2.591ZM212.01489,27.6994h4.409c.57898,0,1.12903.05701,1.65002.16901.51996.112.97498.30099,1.367.56299.39099.263.703.61801.93298,1.06201.23102.44501.34601,1.00101.34601,1.66599,0,.80402-.20905,1.48801-.62701,2.05099-.41901.56302-1.03003.92001-1.83502,1.07001l2.89703,4.81201h-3.00903l-2.38196-4.55402h-1.23804v4.55402h-2.51099v-11.39301Z"/>
  <polygon class="cls-2" points="224.64667 34.2326 220.36664 27.69962 223.48865 27.69962 225.90265 31.96262 228.45966 27.69962 231.43768 27.69962 227.15765 34.2326 227.15765 39.09161 224.64667 39.09161 224.64667 34.2326"/>
  <path class="cls-2" d="M157.30811,48.61731h1.67303c.22498,0,.44196-.021.65198-.064.20898-.043.396-.116.56201-.21701.16699-.10199.30096-.241.40302-.41898.10199-.177.15295-.40002.15295-.66702,0-.28998-.06696-.52399-.20099-.69998-.13501-.177-.30597-.314-.51501-.41-.20996-.09702-.44299-.159-.69995-.186-.258-.026-.505-.04001-.74005-.04001h-1.28699v2.703ZM154.79712,43.79031h4.23199c.59003,0,1.14801.05399,1.67303.16101.526.10699.98499.29199,1.37598.55499.39197.263.703.617.93402,1.06201.22998.44598.34595,1.00598.34595,1.68198,0,.66501-.10797,1.22302-.32196,1.673-.21503.45102-.51001.81-.88501,1.078s-.82098.45901-1.33502.57101c-.51599.112-1.07397.16898-1.67401.16898h-1.83398v4.44202h-2.51099v-11.39301Z"/>
  <path class="cls-2" d="M168.45837,47.10431l-1.38403,3.54001h2.78406l-1.40002-3.54001ZM167.49237,43.79031h2.07599l4.95599,11.39301h-2.83197l-.98102-2.414h-4.42499l-.94904,2.414h-2.76794l4.92297-11.39301Z"/>
  <path class="cls-2" d="M178.17816,48.50531h1.48004c.22498,0,.46399-.008.71594-.02499.25201-.01501.48004-.064.68402-.14401.20398-.08099.37299-.207.50598-.37799.13403-.172.20203-.41299.20203-.72501,0-.289-.05902-.51999-.177-.69098-.11798-.17203-.26898-.30402-.45001-.39502-.18298-.09-.39301-.15298-.62799-.185-.237-.03198-.46698-.048-.69299-.048h-1.64001v2.591ZM175.66718,43.79031h4.409c.57898,0,1.12903.05701,1.65002.16901.51996.112.97498.30099,1.367.56299.39099.263.703.61801.93298,1.06201.23102.44501.34601,1.00101.34601,1.66599,0,.80402-.20905,1.48801-.62701,2.05099-.41901.56302-1.03003.92001-1.83502,1.07001l2.89703,4.81201h-3.00903l-2.38196-4.55402h-1.23804v4.55402h-2.51099v-11.39301Z"/>
  <polygon class="cls-2" points="188.00897 46.01102 184.758 46.01102 184.758 43.79001 193.76898 43.79001 193.76898 46.01102 190.51898 46.01102 190.51898 55.18301 188.00897 55.18301 188.00897 46.01102"/>
  <polygon class="cls-2" points="195.04028 43.79031 198.45129 43.79031 203.29529 51.70731 203.32727 51.70731 203.32727 43.79031 205.83728 43.79031 205.83728 55.18332 202.5553 55.18332 197.58331 47.07233 197.55127 47.07233 197.55127 55.18332 195.04028 55.18332 195.04028 43.79031"/>
  <polygon class="cls-2" points="208.25031 43.79031 215.9903 43.79031 215.9903 46.1073 210.76129 46.1073 210.76129 48.23132 215.70032 48.23132 215.70032 50.54831 210.76129 50.54831 210.76129 52.86533 216.2793 52.86533 216.2793 55.18332 208.25031 55.18332 208.25031 43.79031"/>
  <path class="cls-2" d="M220.80225,48.50531h1.48004c.22498,0,.46399-.008.71594-.02499.25201-.01501.48004-.064.68402-.14401.20398-.08099.37299-.207.50598-.37799.13403-.172.20203-.41299.20203-.72501,0-.289-.05902-.51999-.177-.69098-.11798-.17203-.26898-.30402-.45001-.39502-.18298-.09-.39301-.15298-.62799-.185-.237-.03198-.46698-.048-.69299-.048h-1.64001v2.591ZM218.29126,43.79031h4.409c.57898,0,1.12903.05701,1.65002.16901.51996.112.97498.30099,1.367.56299.39099.263.703.61801.93298,1.06201.23102.44501.34601,1.00101.34601,1.66599,0,.80402-.20905,1.48801-.62701,2.05099-.41901.56302-1.03003.92001-1.83502,1.07001l2.89703,4.81201h-3.00903l-2.38196-4.55402h-1.23804v4.55402h-2.51099v-11.39301Z"/>
  <polygon class="cls-2" points="227.7832 43.74191 229.3822 43.74191 229.3822 44.04092 228.75421 44.04092 228.75421 45.71692 228.4082 45.71692 228.4082 44.04092 227.7832 44.04092 227.7832 43.74191"/>
  <polygon class="cls-2" points="229.60547 43.74191 230.09247 43.74191 230.63647 45.2879 230.64246 45.2879 231.17346 43.74191 231.65448 43.74191 231.65448 45.71692 231.32544 45.71692 231.32544 44.1929 231.3205 44.1929 230.77246 45.71692 230.48749 45.71692 229.93945 44.1929 229.93445 44.1929 229.93445 45.71692 229.60547 45.71692 229.60547 43.74191"/>
</svg>