<?xml version="1.0" encoding="UTF-8"?>
<svg id="Layer_1" data-name="Layer 1" xmlns="http://www.w3.org/2000/svg" viewBox="0 0 221.4903 41.30881">
  <path d="M8.2702,8.03439c-3.385-.802-3.755-1.328-3.755-2.259v-.04901c0-.94598.94199-1.58099,2.34399-1.58099,1.24001,0,2.42001.39102,3.71201,1.229l.014.009c.326.19501.651.28601,1.02399.28601,1.042,0,1.889-.836,1.889-1.86301,0-.798-.45399-1.34601-.884-1.59702-1.688-1.12198-3.555-1.66699-5.706-1.66699C3.1742.54239.5662,2.7854.5662,5.9964v.04999c0,3.44601,2.231,4.659,6.091,5.59201,3.287.759,3.532,1.358,3.532,2.185v.04901c0,1.03598-1.017,1.70599-2.592,1.70599-1.65601,0-3.09801-.53201-4.547-1.68201-.329-.24399-.709-.36301-1.16199-.36301C.84721,13.53339.00021,14.37039.00021,15.39841c0,.60797.292,1.17999.77599,1.526,1.986,1.47699,4.32,2.258,6.748,2.258,4.01701,0,6.613-2.20102,6.613-5.60602v-.047c0-3.57498-2.81799-4.75299-5.867-5.495"/>
  <path d="M66.7712,28.9859c0,1.49301-1.18201,2.42001-3.084,2.42001h-3.968v-4.86301h3.944c1.16,0,3.108.311,3.108,2.39401v.04898ZM63.9092,22.86591h-6.153c-1.11301,0-1.985.87201-1.985,1.98599v14.323c0,1.10101.87199,1.96301,1.985,1.96301,1.101,0,1.963-.862,1.963-1.96301v-4.16599h3.129l4.03601,5.15201c.485.65698,1.09.97699,1.84999.97699,1.054,0,1.91101-.836,1.91101-1.86401,0-.64899-.30602-1.086-.59201-1.444l-2.897-3.65399c2.33701-.94,3.61301-2.823,3.61301-5.362v-.048c0-1.595-.539-2.992-1.567-4.04599-1.23801-1.21301-3.069-1.854-5.293-1.854"/>
  <path d="M12.125,37.3862H3.948v-3.70599h6.947c1.00101,0,1.814-.802,1.814-1.789,0-1.01401-.813-1.84-1.814-1.84H3.948v-3.55701h8.055c1,0,1.814-.81299,1.814-1.81299,0-1.00101-.814-1.815-1.814-1.815H1.987c-1.114,0-1.987.87198-1.987,1.98599v14.17401c0,1.11398.873,1.987,1.987,1.987h10.138c1.001,0,1.815-.81403,1.815-1.81403s-.814-1.81299-1.815-1.81299"/>
  <path d="M38.2524,17.66891c.408.97601,1.17101,1.513,2.147,1.513h.17099c1.007,0,1.759-.52301,2.173-1.51099l6.05301-14.27301c.069-.16202.185-.48401.185-.82001,0-1.07401-.86101-1.91501-1.96201-1.91501-.96201,0-1.63899.64401-1.879,1.27402l-4.616,11.461-4.543-11.35501c-.33701-.87698-1.058-1.38-1.98001-1.38-1.114,0-1.987.85101-1.987,1.93802,0,.375.10701.66599.209.89499l6.02901,14.173Z"/>
  <path d="M24.2096,5.82431l2.325,5.34799h-4.64999l2.325-5.34799ZM18.9986,17.81631l1.329-3.04099h7.76499l1.27901,2.944c.366.86398,1.041,1.33899,1.90199,1.33899,1.05801,0,1.88701-.84,1.88701-1.91299,0-.28702-.076-.578-.21901-.845l-6.392-14.258c-.437-.96701-1.224-1.5-2.217-1.5h-.14799c-1.007,0-1.80301.53198-2.242,1.50098l-6.392,14.26501c-.166.33099-.243.61301-.243.88599,0,1.04602.819,1.86401,1.864,1.86401.832,0,1.51501-.46399,1.827-1.242"/>
  <path d="M31.29951,22.74332c-1.06799,0-1.936.86801-1.936,1.935v9.233l-7.795-10.086c-.44299-.54901-.98399-1.05701-1.934-1.05701h-.32c-1.096,0-1.988.89001-1.988,1.98502v14.44699c0,1.06799.881,1.93701,1.964,1.93701,1.068,0,1.938-.86902,1.938-1.93701v-9.577l8.034,10.40201c.41701.53699.97301,1.086,1.939,1.086h.12401c1.086,0,1.936-.86102,1.936-1.961v-14.47202c0-1.06699-.88-1.935-1.96201-1.935"/>
  <path d="M77.51321,17.1207c0-1-.814-1.814-1.814-1.814h-20.54901v-3.70502h6.946c1.00101,0,1.81601-.80298,1.81601-1.78998,0-1.01401-.815-1.83902-1.81601-1.83902h-6.946v-3.55798h8.054c1,0,1.81401-.81302,1.81401-1.81302,0-1.00098-.81401-1.81497-1.81401-1.81497h-10.017c-1.11299,0-1.985.87299-1.985,1.987v14.17499c0,1.11398.87201,1.987,1.985,1.987h22.51201c1,0,1.814-.814,1.814-1.815"/>
  <path d="M50.1529,37.3862h-8.17799v-3.70599h6.94499c1.00101,0,1.815-.802,1.815-1.789,0-1.01401-.814-1.84-1.815-1.84h-6.94499v-3.55701h8.054c1,0,1.814-.81299,1.814-1.81299,0-1.00101-.814-1.815-1.814-1.815h-10.01701c-1.114,0-1.98599.87198-1.98599,1.98599v14.17401c0,1.11398.87199,1.987,1.98599,1.987h10.14101c1,0,1.813-.81403,1.813-1.81403s-.813-1.81299-1.813-1.81299"/>
  <path d="M106.20521,22.7178c-.722,0-1.32001.36401-1.827,1.10699l-4.494,6.39902-4.42101-6.36902c-.11699-.17099-.26399-.36301-.44899-.53799,1.00499-1.73901,1.58299-3.70499,1.668-5.76901.13699-3.35599-1.04001-6.56497-3.315-9.03497-2.276-2.47101-5.37801-3.90701-8.73401-4.04501-4.75999-.19598-9.16499,2.26801-11.49599,6.42801-.50101.89499-.18201,2.026.71199,2.52698.895.50101,2.026.18201,2.52701-.71298,1.64299-2.93399,4.75-4.67001,8.105-4.53302,2.366.09702,4.552,1.11002,6.155,2.85101,1.604,1.741,2.43401,4.00201,2.33701,6.36801-.097,2.36499-1.11,4.55099-2.85101,6.155-1.741,1.604-4.00198,2.435-6.368,2.33701-3.045-.125-5.77699-1.77502-7.308-4.41501-.51399-.88602-1.64999-1.18802-2.536-.67401-.88701.51401-1.18901,1.64999-.674,2.53601.63699,1.099,1.422,2.07599,2.321,2.914-1.20201,1.612-1.871,3.608-1.871,5.69v.04999c0,2.58701.91499,4.944,2.578,6.63602,1.72499,1.75598,4.082,2.68399,6.81599,2.68399,2.86301,0,5.052-1.05899,6.371-1.939.85899-.53302,1.276-1.289,1.276-2.311v-4.60199c0-1.11502-.87201-1.987-1.98601-1.987h-4.79799c-1.00101,0-1.815.80197-1.815,1.78799,0,.97501.814,1.76801,1.815,1.76801h2.933v2.52499c-1.01601.689-2.35001,1.08099-3.69701,1.08099-3.17799,0-5.397-2.34-5.397-5.69299v-.047c0-1.263.37801-2.46402,1.06201-3.43802,1.46999.677,3.07999,1.07401,4.758,1.14301.231.009.46199.013.692.009,3.004-.03799,5.853-1.13501,8.119-3.12701l5.48099,7.53003v5.16599c0,1.082.88101,1.96301,1.963,1.96301,1.11401,0,1.98601-.862,1.98601-1.96301v-5.23999l5.791-7.92001c.34399-.45999.511-.905.511-1.35999,0-1.104-.834-1.93701-1.94-1.93701"/>
  <path d="M81.1673,18.2735c-.724,0-1.312-.58899-1.312-1.315s.588-1.315,1.312-1.315,1.312.58902,1.312,1.315-.588,1.315-1.312,1.315M81.1673,13.78351c-1.694,0-3.067,1.42001-3.067,3.173s1.373,3.173,3.067,3.173,3.067-1.42001,3.067-3.173-1.373-3.173-3.067-3.173"/>
  <path d="M90.33891,14.1716c-.16701-.164-.38901-.24701-.66-.24701-.265,0-.48399.08401-.64999.24802-.16301.16199-.245.38998-.245.677v2.26599l-1.871-2.41599-.032-.04401c-.05701-.07602-.11201-.14999-.166-.22101-.078-.104-.15401-.18701-.23201-.255-.089-.078-.19299-.13998-.30899-.185-.119-.04599-.257-.07001-.412-.07001-.201,0-.392.04901-.565.14502-.183.10098-.31801.237-.40201.41-.06499.13998-.09599.31497-.09599.53497v4.13202c0,.28299.086.51099.254.67499.17.16602.392.25.659.25.259,0,.47801-.082.651-.24399.17401-.164.26201-.39301.26201-.681v-2.20801l1.815,2.375c.06999.08701.14.172.20999.255.08301.099.174.18701.272.26199.11.08301.23.14499.358.185.123.03702.259.056.405.056.638,0,1.00299-.36798,1.00299-1.009v-4.21298c0-.28799-.084-.51602-.24899-.67801"/>
  <rect x="126.0819" width=".804" height="41.013"/>
  <path d="M147.144,22.59583h1.30199c.58102,0,1.12003-.05801,1.61801-.177.49899-.11801.92999-.31302,1.29599-.58801.36401-.27301.651-.63199.86002-1.078.20898-.444.314-.98898.314-1.63199,0-.55801-.10501-1.043-.314-1.457-.20901-.41299-.48999-.75299-.845-1.021-.353-.26901-.76901-.47-1.24701-.604-.47699-.134-.978-.20102-1.504-.20102h-1.48v6.75803ZM144.633,13.52081h3.76599c.91101,0,1.77802.10199,2.59802.306.82098.20401,1.53699.534,2.14899.98901.61099.45599,1.09601,1.04898,1.45599,1.77798.35901.73001.539,1.61499.539,2.655,0,.923-.17499,1.73599-.52399,2.43799-.34802.703-.81702,1.29303-1.40701,1.77002-.591.47699-1.271.83899-2.04401,1.086-.772.24701-1.582.37-2.42899.37h-4.104v-11.392Z"/>
  <polygon points="156.94251 13.52081 164.6825 13.52081 164.6825 15.8378 159.4535 15.8378 159.4535 17.96182 164.39252 17.96182 164.39252 20.27881 159.4535 20.27881 159.4535 22.59583 164.9715 22.59583 164.9715 24.91281 156.94251 24.91281 156.94251 13.52081"/>
  <polygon points="167.07929 13.52081 169.59028 13.52081 169.59028 22.59583 174.2393 22.59583 174.2393 24.91281 167.07929 24.91281 167.07929 13.52081"/>
  <rect x="175.59089" y="13.521" width="2.51099" height="11.392"/>
  <polygon points="179.2599 13.52081 182.12391 13.52081 184.93989 20.98682 184.9719 20.98682 187.83588 13.52081 190.5239 13.52081 185.8249 24.91281 183.81388 24.91281 179.2599 13.52081"/>
  <polygon points="191.81071 13.52081 199.5507 13.52081 199.5507 15.8378 194.32169 15.8378 194.32169 17.96182 199.26072 17.96182 199.26072 20.27881 194.32169 20.27881 194.32169 22.59583 199.8397 22.59583 199.8397 24.91281 191.81071 24.91281 191.81071 13.52081"/>
  <path d="M204.3617,18.23581h1.48001c.22501,0,.46399-.008.716-.02499.25201-.01501.48001-.064.68399-.14401.20401-.08099.37302-.207.50601-.37799.134-.172.202-.41299.202-.72501,0-.289-.05899-.51999-.177-.69098-.11801-.17203-.26901-.30402-.44998-.39502-.18301-.09-.39301-.15298-.62802-.185-.237-.03198-.46698-.048-.69299-.048h-1.64001v2.591ZM201.85072,13.52081h4.409c.57901,0,1.129.05701,1.64999.16901.52002.112.97501.30099,1.367.56299.39099.263.703.61801.93301,1.06201.23099.44501.34598,1.00101.34598,1.66599,0,.80402-.20898,1.48801-.62698,2.05099-.41901.56302-1.03.92001-1.83499,1.07001l2.897,4.811h-3.009l-2.38202-4.55301h-1.23801v4.55301h-2.51099v-11.392Z"/>
  <polygon points="214.48261 20.05402 210.20261 13.52103 213.32462 13.52103 215.73862 17.78403 218.2956 13.52103 221.2736 13.52103 216.9936 20.05402 216.9936 24.91302 214.48261 24.91302 214.48261 20.05402"/>
  <path d="M147.144,34.4386h1.67299c.22501,0,.44202-.021.65201-.064.20901-.043.396-.11499.56201-.21701.16699-.10199.30099-.241.40298-.41898.10199-.177.15302-.40002.15302-.66702,0-.28998-.06702-.52298-.20102-.69998-.13498-.177-.306-.314-.51498-.41-.21002-.09702-.44299-.159-.70001-.186-.258-.026-.505-.04001-.73999-.04001h-1.287v2.703ZM144.633,29.6116h4.23199c.59,0,1.14801.05399,1.673.16101.526.10699.98502.29199,1.37601.55499.392.26401.703.617.93399,1.06201.23001.44598.34601,1.00598.34601,1.68198,0,.66501-.108,1.22302-.32199,1.673-.21503.45102-.51001.81-.88501,1.078-.375.26901-.82101.45901-1.33499.57101-.51602.11298-1.07401.16898-1.67401.16898h-1.834v4.44202h-2.511v-11.39301Z"/>
  <path d="M158.29432,32.9256l-1.384,3.54102h2.784l-1.39999-3.54102ZM157.32832,29.6116h2.07599l4.95602,11.39301h-2.832l-.98102-2.414h-4.42499l-.94901,2.414h-2.76801l4.923-11.39301Z"/>
  <path d="M168.01408,34.3266h1.48001c.22501,0,.46399-.008.716-.02499.25201-.01501.48001-.064.68399-.14401.20401-.08099.37302-.207.50601-.37799.134-.172.202-.41299.202-.72501,0-.289-.05899-.51999-.177-.69098-.11801-.17203-.26898-.30402-.45001-.39502-.18298-.09-.39297-.15298-.62799-.185-.237-.03198-.46698-.048-.69299-.048h-1.64001v2.591ZM165.50309,29.6116h4.409c.57901,0,1.129.05701,1.64999.16901.52002.112.97501.30099,1.367.56299.39099.263.703.61801.93301,1.06201.23099.44501.34598,1.00101.34598,1.66599,0,.80402-.20898,1.48801-.62698,2.05099-.41901.56302-1.03.92001-1.83499,1.07001l2.897,4.81201h-3.009l-2.38202-4.55402h-1.23801v4.55402h-2.51099v-11.39301Z"/>
  <polygon points="177.84489 31.83231 174.59388 31.83231 174.59388 29.6113 183.6049 29.6113 183.6049 31.83231 180.3549 31.83231 180.3549 41.0043 177.84489 41.0043 177.84489 31.83231"/>
  <polygon points="184.87611 29.6116 188.28712 29.6116 193.13111 37.52859 193.16309 37.52859 193.16309 29.6116 195.6731 29.6116 195.6731 41.00461 192.39112 41.00461 187.41911 32.89362 187.38709 32.89362 187.38709 41.00461 184.87611 41.00461 184.87611 29.6116"/>
  <polygon points="198.0861 29.6116 205.82609 29.6116 205.82609 31.92859 200.59708 31.92859 200.59708 34.05261 205.53611 34.05261 205.53611 36.3696 200.59708 36.3696 200.59708 38.68661 206.11509 38.68661 206.11509 41.00461 198.0861 41.00461 198.0861 29.6116"/>
  <path d="M210.6381,34.3266h1.48001c.22501,0,.46399-.008.716-.02499.25201-.01501.48001-.064.68399-.14401.20401-.08099.37302-.207.50601-.37799.134-.172.202-.41299.202-.72501,0-.289-.05899-.51999-.177-.69098-.11801-.17203-.26898-.30402-.45001-.39502-.18298-.09-.39297-.15298-.62799-.185-.237-.03198-.46698-.048-.69299-.048h-1.64001v2.591ZM208.12711,29.6116h4.409c.57901,0,1.129.05701,1.64999.16901.52002.112.97501.30099,1.367.56299.39099.263.703.61801.93301,1.06201.23099.44501.34598,1.00101.34598,1.66599,0,.80402-.20898,1.48801-.62698,2.05099-.41901.56302-1.03.92001-1.83499,1.07001l2.897,4.81201h-3.009l-2.38202-4.55402h-1.23801v4.55402h-2.51099v-11.39301Z"/>
  <polygon points="217.61909 29.56329 219.21809 29.56329 219.21809 29.8623 218.5901 29.8623 218.5901 31.5383 218.24409 31.5383 218.24409 29.8623 217.61909 29.8623 217.61909 29.56329"/>
  <polygon points="219.44129 29.56329 219.92829 29.56329 220.4723 31.10928 220.47828 31.10928 221.00928 29.56329 221.4903 29.56329 221.4903 31.5383 221.16129 31.5383 221.16129 30.01428 221.15629 30.01428 220.60828 31.5383 220.32328 31.5383 219.77531 30.01428 219.7703 30.01428 219.7703 31.5383 219.44129 31.5383 219.44129 29.56329"/>
</svg>