<?xml version="1.0" encoding="UTF-8"?>
<svg id="Layer_1" xmlns="http://www.w3.org/2000/svg" xmlns:xlink="http://www.w3.org/1999/xlink" version="1.1" viewBox="0 0 156 73">
  <!-- Generator: Adobe Illustrator 29.3.1, SVG Export Plug-In . SVG Version: 2.1.0 Build 151)  -->
  <defs>
    <style>
      .st0 {
        mask: url(#mask);
      }

      .st1 {
        fill: #fff;
        fill-rule: evenodd;
      }

      .st2 {
        mask: url(#mask-3);
      }

      .st3 {
        mask: url(#mask-1);
      }

      .st4 {
        mask: url(#mask-22);
      }
    </style>
    <mask id="mask" x=".5" y="62.8" width="19" height="10.1" maskUnits="userSpaceOnUse">
      <g id="mask-2">
        <polygon id="path-1" class="st1" points=".5 62.8 19.5 62.8 19.5 72.9 .5 72.9 .5 62.8"/>
      </g>
    </mask>
    <mask id="mask-1" x=".5" y="62.8" width="19" height="10.2" maskUnits="userSpaceOnUse">
      <g id="mask-21" data-name="mask-2">
        <polygon id="path-11" data-name="path-1" class="st1" points=".5 62.8 19.5 62.8 19.5 72.9 .5 72.9 .5 62.8"/>
      </g>
    </mask>
    <mask id="mask-22" data-name="mask-2" x="97.5" y="62.8" width="11.4" height="10.1" maskUnits="userSpaceOnUse">
      <g id="mask-4">
        <polygon id="path-3" class="st1" points="97.5 62.8 108.9 62.8 108.9 72.9 97.5 72.9 97.5 62.8"/>
      </g>
    </mask>
    <mask id="mask-3" x="97.5" y="62.8" width="11.4" height="10.2" maskUnits="userSpaceOnUse">
      <g id="mask-41" data-name="mask-4">
        <polygon id="path-31" data-name="path-3" class="st1" points="97.5 62.8 108.9 62.8 108.9 72.9 97.5 72.9 97.5 62.8"/>
      </g>
    </mask>
  </defs>
  <g id="Page-1">
    <g id="L_Save_on_Energy_TM_Tag_E_4CC-155">
      <g id="Group-4">
        <g class="st0">
          <path id="Fill-1" class="st1" d="M3,67.5h.8c.9,0,1.4-.4,1.4-1.2s-.5-1.2-1.4-1.2h-.8v2.4ZM3,72.7H.5v-9.6h4c1.1,0,1.9.3,2.5.8.6.6.9,1.4.9,2.4s-.3,1.8-.9,2.4c-.6.6-1.4.8-2.5.8h-1.5v3.2Z"/>
        </g>
        <g class="st3">
          <path id="Fill-3" class="st1" d="M11.5,67.9c0,.4,0,.7.2,1.1.1.3.3.6.6.8.2.2.5.4.9.6s.7.2,1,.2.7,0,1-.2c.3-.1.6-.3.9-.6.3-.2.4-.5.6-.8.1-.3.2-.7.2-1.1s0-.7-.2-1.1c-.1-.3-.3-.6-.6-.8-.3-.2-.5-.4-.9-.6-.3-.1-.7-.2-1-.2s-.7,0-1,.2c-.3.1-.6.3-.9.6-.2.2-.4.5-.6.8-.1.3-.2.7-.2,1.1ZM8.9,67.9c0-.7.1-1.4.4-2,.3-.6.6-1.2,1.1-1.6.5-.5,1-.8,1.7-1.1.7-.3,1.4-.4,2.2-.4s1.5.1,2.1.4c.7.3,1.2.6,1.7,1.1.5.5.8,1,1.1,1.6s.4,1.3.4,2-.1,1.4-.4,2-.6,1.2-1.1,1.6c-.5.5-1,.8-1.7,1.1-.7.3-1.4.4-2.1.4s-1.5-.1-2.2-.4c-.7-.3-1.2-.6-1.7-1.1-.5-.5-.8-1-1.1-1.6-.3-.6-.4-1.3-.4-2Z"/>
        </g>
      </g>
      <polyline id="Fill-5" class="st1" points="22.6 63.1 24.2 69.3 26.3 63.1 28.3 63.1 30.3 69.3 32 63.1 34.6 63.1 31.7 72.7 29.2 72.7 27.3 67.2 25.4 72.7 22.8 72.7 19.9 63.1 22.6 63.1"/>
      <polyline id="Fill-6" class="st1" points="41.4 65.2 38.4 65.2 38.4 66.8 41.2 66.8 41.2 69 38.4 69 38.4 70.6 41.4 70.6 41.4 72.7 35.9 72.7 35.9 63.1 41.4 63.1 41.4 65.2"/>
      <path id="Fill-7" class="st1" d="M45.6,67.4h.5c.5,0,.9-.1,1.1-.3.3-.2.4-.5.4-.9s-.1-.7-.4-.9c-.3-.2-.6-.3-1.1-.3h-.5v2.4ZM51.1,72.7h-3.1l-2.4-3.7v3.7h-2.5v-9.6h3.9c.5,0,1,0,1.4.2.4.2.7.4,1,.6.3.3.5.6.6.9s.2.7.2,1.2c0,.7-.2,1.3-.5,1.8-.4.5-.9.8-1.6.9l3,3.9Z"/>
      <polyline id="Fill-8" class="st1" points="58.2 63.1 59.9 69.3 62 63.1 63.9 63.1 66 69.3 67.6 63.1 70.3 63.1 67.4 72.7 64.8 72.7 62.9 67.2 61.1 72.7 58.5 72.7 55.6 63.1 58.2 63.1"/>
      <polyline id="Fill-9" class="st1" points="74.1 66.8 77.7 66.8 77.7 63.1 80.2 63.1 80.2 72.7 77.7 72.7 77.7 68.8 74.1 68.8 74.1 72.7 71.6 72.7 71.6 63.1 74.1 63.1 74.1 66.8"/>
      <path id="Fill-10" class="st1" d="M87.5,69.2l-1.1-3.2-1.1,3.2h2.2ZM88.1,71.1h-3.6l-.6,1.7h-2.7l3.7-9.6h2.7l3.7,9.6h-2.7l-.6-1.7Z"/>
      <polyline id="Fill-11" class="st1" points="95.1 65.2 95.1 72.7 92.6 72.7 92.6 65.2 90.6 65.2 90.6 63.1 97.2 63.1 97.2 65.2 95.1 65.2"/>
      <g id="Group-15">
        <g class="st4">
          <polyline id="Fill-12" class="st1" points="99.1 63.1 101.3 63.1 99 67.3 97.5 67.3 99.1 63.1"/>
        </g>
        <g class="st2">
          <path id="Fill-14" class="st1" d="M107.5,65.6c-.3-.2-.5-.4-.8-.5-.3-.1-.5-.2-.8-.2s-.6,0-.8.2c-.2.2-.3.4-.3.6s0,.3.2.4c.1.1.2.2.4.3.2,0,.4.2.6.2.2,0,.4.1.6.2.8.3,1.4.6,1.8,1.1.4.5.6,1.1.6,1.8s0,.9-.2,1.3c-.2.4-.4.7-.7,1-.3.3-.7.5-1.2.7-.5.2-1,.2-1.6.2-1.2,0-2.3-.4-3.4-1.1l1.1-2c.4.3.7.6,1.1.7.4.2.7.2,1.1.2s.7,0,.9-.3.3-.4.3-.6,0-.3,0-.4c0-.1-.1-.2-.3-.3-.1,0-.3-.2-.5-.2-.2,0-.4-.2-.7-.3-.3-.1-.6-.2-1-.3-.3-.1-.6-.3-.8-.5s-.4-.5-.6-.8c-.2-.3-.2-.7-.2-1.2s0-.9.2-1.3c.2-.4.4-.7.7-1,.3-.3.6-.5,1-.6.4-.2.9-.2,1.4-.2s1,0,1.5.2,1,.3,1.5.6l-1,2"/>
        </g>
      </g>
      <polyline id="Fill-16" class="st1" points="114.9 72.7 114.9 63.1 117.4 63.1 122 69 122 63.1 124.5 63.1 124.5 72.7 122 72.7 117.4 66.8 117.4 72.7 114.9 72.7"/>
      <polyline id="Fill-17" class="st1" points="131.9 65.2 129 65.2 129 66.8 131.8 66.8 131.8 69 129 69 129 70.6 131.9 70.6 131.9 72.7 126.5 72.7 126.5 63.1 131.9 63.1 131.9 65.2"/>
      <polyline id="Fill-18" class="st1" points="136.6 67.6 133.6 63.1 136.7 63.1 138 65.6 139.6 63.1 142.7 63.1 139.5 67.6 143.1 72.7 140.1 72.7 138.1 69.6 135.9 72.7 132.8 72.7 136.6 67.6"/>
      <polyline id="Fill-19" class="st1" points="148 65.2 148 72.7 145.5 72.7 145.5 65.2 143.4 65.2 143.4 63.1 150 63.1 150 65.2 148 65.2"/>
      <polyline id="Fill-20" class="st1" points="149.9 31.8 152.1 31.8 152.1 32.2 151.2 32.2 151.2 34.5 150.7 34.5 150.7 32.2 149.9 32.2 149.9 31.8"/>
      <polyline id="Fill-21" class="st1" points="152.4 31.8 153 31.8 153.8 33.9 153.8 33.9 154.5 31.8 155.2 31.8 155.2 34.5 154.7 34.5 154.7 32.4 154.7 32.4 154 34.5 153.6 34.5 152.8 32.4 152.8 32.4 152.8 34.5 152.4 34.5 152.4 31.8"/>
      <path id="Fill-22" class="st1" d="M11.4,10.8c-4.7-1.1-5.2-1.8-5.2-3.1h0c0-1.4,1.3-2.2,3.2-2.2s3.3.5,5.1,1.7h0c.4.3.9.4,1.4.4,1.4,0,2.6-1.2,2.6-2.6s-.6-1.9-1.2-2.2C15,1.2,12.5.5,9.5.5,4.4.5.8,3.6.8,8h0c0,4.8,3.1,6.5,8.4,7.8,4.5,1,4.9,1.9,4.9,3h0c0,1.5-1.4,2.4-3.6,2.4s-4.3-.7-6.3-2.3c-.5-.3-1-.5-1.6-.5-1.4,0-2.6,1.2-2.6,2.6s.4,1.6,1.1,2.1c2.7,2,5.9,3.1,9.3,3.1,5.5,0,9.1-3,9.1-7.7h0c0-5-3.9-6.6-8.1-7.6"/>
      <path id="Fill-23" class="st1" d="M91.9,39.6c0,2.1-1.6,3.3-4.2,3.3h-5.5v-6.7h5.4c1.6,0,4.3.4,4.3,3.3h0ZM87.9,31.2h-8.5c-1.5,0-2.7,1.2-2.7,2.7v19.7c0,1.5,1.2,2.7,2.7,2.7s2.7-1.2,2.7-2.7v-5.7h4.3l5.6,7.1c.7.9,1.5,1.3,2.5,1.3s2.6-1.1,2.6-2.6-.4-1.5-.8-2l-4-5c3.2-1.3,5-3.9,5-7.4h0c0-2.3-.7-4.2-2.2-5.6-1.7-1.7-4.2-2.6-7.3-2.6Z"/>
      <path id="Fill-24" class="st1" d="M16.7,51.2H5.4v-5.1h9.6c1.4,0,2.5-1.1,2.5-2.5s-1.1-2.5-2.5-2.5H5.4v-4.9h11.1c1.4,0,2.5-1.1,2.5-2.5s-1.1-2.5-2.5-2.5H2.7c-1.5,0-2.7,1.2-2.7,2.7v19.5c0,1.5,1.2,2.7,2.7,2.7h13.9c1.4,0,2.5-1.1,2.5-2.5s-1.1-2.5-2.5-2.5"/>
      <path id="Fill-25" class="st1" d="M52.6,24c.6,1.3,1.6,2.1,3,2.1h.2c1.4,0,2.4-.7,3-2.1l8.3-19.6c0-.2.3-.7.3-1.1,0-1.5-1.2-2.6-2.7-2.6s-2.3.9-2.6,1.8l-6.4,15.8-6.2-15.6c-.5-1.2-1.5-1.9-2.7-1.9s-2.7,1.2-2.7,2.7.1.9.3,1.2l8.3,19.5"/>
      <path id="Fill-26" class="st1" d="M33.3,7.7l3.2,7.4h-6.4l3.2-7.4ZM26.1,24.2l1.8-4.2h10.7l1.8,4c.5,1.2,1.4,1.8,2.6,1.8s2.6-1.2,2.6-2.6-.1-.8-.3-1.2L36.5,2.5c-.6-1.3-1.7-2.1-3-2.1h-.2c-1.4,0-2.5.7-3.1,2.1l-8.8,19.6c-.2.5-.3.8-.3,1.2,0,1.4,1.1,2.6,2.6,2.6s2.1-.6,2.5-1.7Z"/>
      <path id="Fill-27" class="st1" d="M43.1,31c-1.5,0-2.7,1.2-2.7,2.7v12.7l-10.7-13.9c-.6-.8-1.4-1.5-2.7-1.5h-.4c-1.5,0-2.7,1.2-2.7,2.7v19.9c0,1.5,1.2,2.7,2.7,2.7s2.7-1.2,2.7-2.7v-13.2l11.1,14.3c.6.7,1.3,1.5,2.7,1.5h.2c1.5,0,2.7-1.2,2.7-2.7v-19.9c0-1.5-1.2-2.7-2.7-2.7"/>
      <path id="Fill-28" class="st1" d="M106.6,23.3c0-1.4-1.1-2.5-2.5-2.5h-28.3v-5.1h9.6c1.4,0,2.5-1.1,2.5-2.5s-1.1-2.5-2.5-2.5h-9.6v-4.9h11.1c1.4,0,2.5-1.1,2.5-2.5s-1.1-2.5-2.5-2.5h-13.8c-1.5,0-2.7,1.2-2.7,2.7v19.5c0,1.5,1.2,2.7,2.7,2.7h31c1.4,0,2.5-1.1,2.5-2.5"/>
      <path id="Fill-29" class="st1" d="M69,51.2h-11.3v-5.1h9.6c1.4,0,2.5-1.1,2.5-2.5s-1.1-2.5-2.5-2.5h-9.6v-4.9h11.1c1.4,0,2.5-1.1,2.5-2.5s-1.1-2.5-2.5-2.5h-13.8c-1.5,0-2.7,1.2-2.7,2.7v19.5c0,1.5,1.2,2.7,2.7,2.7h14c1.4,0,2.5-1.1,2.5-2.5s-1.1-2.5-2.5-2.5"/>
      <path id="Fill-30" class="st1" d="M146.1,31c-1,0-1.8.5-2.5,1.5l-6.2,8.8-6.1-8.8c-.2-.2-.4-.5-.6-.7,1.4-2.4,2.2-5.1,2.3-7.9.2-4.6-1.4-9-4.6-12.4-3.1-3.4-7.4-5.4-12-5.6-6.6-.3-12.6,3.1-15.8,8.8-.7,1.2-.2,2.8,1,3.5,1.2.7,2.8.3,3.5-1,2.3-4,6.5-6.4,11.2-6.2,3.3.1,6.3,1.5,8.5,3.9,2.2,2.4,3.3,5.5,3.2,8.8-.1,3.3-1.5,6.3-3.9,8.5-2.4,2.2-5.5,3.3-8.8,3.2-4.2-.2-7.9-2.4-10.1-6.1-.7-1.2-2.3-1.6-3.5-.9-1.2.7-1.6,2.3-.9,3.5.9,1.5,2,2.9,3.2,4-1.7,2.2-2.6,5-2.6,7.8h0c0,3.6,1.3,6.9,3.5,9.2,2.4,2.4,5.6,3.7,9.4,3.7s7-1.5,8.8-2.7c1.2-.7,1.8-1.8,1.8-3.2v-6.3c0-1.5-1.2-2.7-2.7-2.7h-6.6c-1.4,0-2.5,1.1-2.5,2.5s1.1,2.4,2.5,2.4h4v3.5c-1.4.9-3.2,1.5-5.1,1.5-4.4,0-7.4-3.2-7.4-7.8h0c0-1.8.5-3.5,1.5-4.8,2,.9,4.2,1.5,6.5,1.6.3,0,.6,0,1,0,4.1,0,8.1-1.6,11.2-4.3l7.5,10.4v7.1c0,1.5,1.2,2.7,2.7,2.7s2.7-1.2,2.7-2.7v-7.2l8-10.9c.5-.6.7-1.2.7-1.9,0-1.5-1.1-2.7-2.7-2.7"/>
      <path id="Fill-31" class="st1" d="M111.7,24.9c-1,0-1.8-.8-1.8-1.8s.8-1.8,1.8-1.8,1.8.8,1.8,1.8-.8,1.8-1.8,1.8ZM111.7,18.7c-2.3,0-4.2,2-4.2,4.4s1.9,4.4,4.2,4.4,4.2-2,4.2-4.4-1.9-4.4-4.2-4.4Z"/>
      <path id="Fill-32" class="st1" d="M124.3,19.2c-.2-.2-.5-.3-.9-.3s-.7.1-.9.3c-.2.2-.3.5-.3.9v3.1l-2.6-3.3h0c0-.2-.2-.3-.2-.4-.1-.1-.2-.3-.3-.4-.1-.1-.3-.2-.4-.3-.2,0-.4,0-.6,0s-.5,0-.8.2c-.3.1-.4.3-.6.6,0,.2-.1.4-.1.7v5.7c0,.4.1.7.3.9.2.2.5.3.9.3s.7-.1.9-.3c.2-.2.4-.5.4-.9v-3l2.5,3.3c0,.1.2.2.3.4.1.1.2.3.4.4.2.1.3.2.5.3.2,0,.4,0,.6,0,.9,0,1.4-.5,1.4-1.4v-5.8c0-.4-.1-.7-.3-.9"/>
    </g>
  </g>
</svg>